<?xml version="1.0" encoding="UTF-8" standalone="no"?>
<!DOCTYPE svg PUBLIC "-//W3C//DTD SVG 1.1//EN"
 "http://www.w3.org/Graphics/SVG/1.1/DTD/svg11.dtd">
<!-- Generated by graphviz version 2.36.0 (20140111.2315)
 -->
<!-- Title: controllers_diagram Pages: 1 -->
<svg width="1649pt" height="948pt"
 viewBox="0.00 0.00 1648.92 947.89" xmlns="http://www.w3.org/2000/svg" xmlns:xlink="http://www.w3.org/1999/xlink">
<g id="graph0" class="graph" transform="scale(1 1) rotate(0) translate(4 943.895)">
<title>controllers_diagram</title>
<polygon fill="white" stroke="none" points="-4,4 -4,-943.895 1644.92,-943.895 1644.92,4 -4,4"/>
<!-- _diagram_info -->
<g id="node1" class="node"><title>_diagram_info</title>
<text text-anchor="start" x="800" y="-58.6" font-family="Times,serif" font-size="13.00">Controllers diagram</text>
<text text-anchor="start" x="800" y="-45.6" font-family="Times,serif" font-size="13.00">Date: Oct 03 2014 &#45; 08:52</text>
<text text-anchor="start" x="800" y="-32.6" font-family="Times,serif" font-size="13.00">Migration version: 20140820130919</text>
<text text-anchor="start" x="800" y="-19.6" font-family="Times,serif" font-size="13.00">Generated by RailRoady 1.1.2</text>
<text text-anchor="start" x="800" y="-6.6" font-family="Times,serif" font-size="13.00">http://railroady.prestonlee.com</text>
</g>
<!-- ApplicationController -->
<g id="node2" class="node"><title>ApplicationController</title>
<ellipse fill="none" stroke="black" cx="827.758" cy="-455.088" rx="88.417" ry="18"/>
<text text-anchor="middle" x="827.758" y="-450.888" font-family="Times,serif" font-size="14.00">ApplicationController</text>
</g>
<!-- CellTypesController -->
<g id="node3" class="node"><title>CellTypesController</title>
<ellipse fill="none" stroke="black" cx="1260.39" cy="-458.394" rx="82.3781" ry="18"/>
<text text-anchor="middle" x="1260.39" y="-454.194" font-family="Times,serif" font-size="14.00">CellTypesController</text>
</g>
<!-- ApplicationController&#45;&gt;CellTypesController -->
<g id="edge1" class="edge"><title>ApplicationController&#45;&gt;CellTypesController</title>
<path fill="none" stroke="black" d="M909.43,-448.075C945.963,-445.526 989.582,-443.288 1028.94,-443.42 1081.08,-443.594 1139.7,-447.423 1184.89,-451.166"/>
</g>
<!-- DataProcessingTypesController -->
<g id="node4" class="node"><title>DataProcessingTypesController</title>
<ellipse fill="none" stroke="black" cx="477.375" cy="-194" rx="122.428" ry="18"/>
<text text-anchor="middle" x="477.375" y="-189.8" font-family="Times,serif" font-size="14.00">DataProcessingTypesController</text>
</g>
<!-- ApplicationController&#45;&gt;DataProcessingTypesController -->
<g id="edge2" class="edge"><title>ApplicationController&#45;&gt;DataProcessingTypesController</title>
<path fill="none" stroke="black" d="M804.225,-437.552C740.548,-390.103 565.361,-259.563 501.267,-211.804"/>
</g>
<!-- DataProcessingsController -->
<g id="node5" class="node"><title>DataProcessingsController</title>
<ellipse fill="none" stroke="black" cx="734.687" cy="-913.655" rx="104.821" ry="18"/>
<text text-anchor="middle" x="734.687" y="-909.455" font-family="Times,serif" font-size="14.00">DataProcessingsController</text>
</g>
<!-- ApplicationController&#45;&gt;DataProcessingsController -->
<g id="edge3" class="edge"><title>ApplicationController&#45;&gt;DataProcessingsController</title>
<path fill="none" stroke="black" d="M824.053,-473.347C809.109,-546.975 753.366,-821.621 738.404,-895.344"/>
</g>
<!-- DataSetTypesController -->
<g id="node6" class="node"><title>DataSetTypesController</title>
<ellipse fill="none" stroke="black" cx="1169.48" cy="-677.624" rx="95.3908" ry="18"/>
<text text-anchor="middle" x="1169.48" y="-673.424" font-family="Times,serif" font-size="14.00">DataSetTypesController</text>
</g>
<!-- ApplicationController&#45;&gt;DataSetTypesController -->
<g id="edge4" class="edge"><title>ApplicationController&#45;&gt;DataSetTypesController</title>
<path fill="none" stroke="black" d="M854.289,-472.365C917.956,-513.826 1078.85,-618.599 1142.74,-660.205"/>
</g>
<!-- DataSetsController -->
<g id="node7" class="node"><title>DataSetsController</title>
<ellipse fill="none" stroke="black" cx="660.842" cy="-665.717" rx="77.7848" ry="18"/>
<text text-anchor="middle" x="660.842" y="-661.517" font-family="Times,serif" font-size="14.00">DataSetsController</text>
</g>
<!-- ApplicationController&#45;&gt;DataSetsController -->
<g id="edge5" class="edge"><title>ApplicationController&#45;&gt;DataSetsController</title>
<path fill="none" stroke="black" d="M813.527,-473.046C781.992,-512.84 706.539,-608.052 675.038,-647.804"/>
</g>
<!-- DiseasesController -->
<g id="node8" class="node"><title>DiseasesController</title>
<ellipse fill="none" stroke="black" cx="140.971" cy="-229.776" rx="77.3003" ry="18"/>
<text text-anchor="middle" x="140.971" y="-225.576" font-family="Times,serif" font-size="14.00">DiseasesController</text>
</g>
<!-- ApplicationController&#45;&gt;DiseasesController -->
<g id="edge6" class="edge"><title>ApplicationController&#45;&gt;DiseasesController</title>
<path fill="none" stroke="black" d="M781.093,-439.778C655.197,-398.476 309.759,-285.15 185.904,-244.517"/>
</g>
<!-- ExperimentDetailsController -->
<g id="node9" class="node"><title>ExperimentDetailsController</title>
<ellipse fill="none" stroke="black" cx="1528.16" cy="-238.332" rx="112.522" ry="18"/>
<text text-anchor="middle" x="1528.16" y="-234.132" font-family="Times,serif" font-size="14.00">ExperimentDetailsController</text>
</g>
<!-- ApplicationController&#45;&gt;ExperimentDetailsController -->
<g id="edge7" class="edge"><title>ApplicationController&#45;&gt;ExperimentDetailsController</title>
<path fill="none" stroke="black" d="M876.453,-440.018C1003.65,-400.655 1345.04,-295.004 1476.01,-254.47"/>
</g>
<!-- MoleculesController -->
<g id="node10" class="node"><title>MoleculesController</title>
<ellipse fill="none" stroke="black" cx="632.527" cy="-437.697" rx="83.0891" ry="18"/>
<text text-anchor="middle" x="632.527" y="-433.497" font-family="Times,serif" font-size="14.00">MoleculesController</text>
</g>
<!-- ApplicationController&#45;&gt;MoleculesController -->
<g id="edge8" class="edge"><title>ApplicationController&#45;&gt;MoleculesController</title>
<path fill="none" stroke="black" d="M746.659,-447.864C734.401,-446.772 721.786,-445.648 709.616,-444.564"/>
</g>
<!-- OrganismsController -->
<g id="node11" class="node"><title>OrganismsController</title>
<ellipse fill="none" stroke="black" cx="955.508" cy="-206.449" rx="84.74" ry="18"/>
<text text-anchor="middle" x="955.508" y="-202.249" font-family="Times,serif" font-size="14.00">OrganismsController</text>
</g>
<!-- ApplicationController&#45;&gt;OrganismsController -->
<g id="edge9" class="edge"><title>ApplicationController&#45;&gt;OrganismsController</title>
<path fill="none" stroke="black" d="M837.152,-436.805C860.835,-390.712 922.762,-270.183 946.273,-224.424"/>
</g>
<!-- PlatformsController -->
<g id="node12" class="node"><title>PlatformsController</title>
<ellipse fill="none" stroke="black" cx="731.994" cy="-198.195" rx="80.6921" ry="18"/>
<text text-anchor="middle" x="731.994" y="-193.995" font-family="Times,serif" font-size="14.00">PlatformsController</text>
</g>
<!-- ApplicationController&#45;&gt;PlatformsController -->
<g id="edge10" class="edge"><title>ApplicationController&#45;&gt;PlatformsController</title>
<path fill="none" stroke="black" d="M821.024,-437.024C803.441,-389.856 756.295,-263.385 738.72,-216.239"/>
</g>
<!-- ProjectAttachmentsController -->
<g id="node13" class="node"><title>ProjectAttachmentsController</title>
<ellipse fill="none" stroke="black" cx="116.203" cy="-556.384" rx="116.405" ry="18"/>
<text text-anchor="middle" x="116.203" y="-552.184" font-family="Times,serif" font-size="14.00">ProjectAttachmentsController</text>
</g>
<!-- ApplicationController&#45;&gt;ProjectAttachmentsController -->
<g id="edge11" class="edge"><title>ApplicationController&#45;&gt;ProjectAttachmentsController</title>
<path fill="none" stroke="black" d="M755.284,-465.405C623.066,-484.227 343.333,-524.05 201.906,-544.183"/>
</g>
<!-- ProjectsController -->
<g id="node14" class="node"><title>ProjectsController</title>
<ellipse fill="none" stroke="black" cx="1533" cy="-571.911" rx="74.8948" ry="18"/>
<text text-anchor="middle" x="1533" y="-567.711" font-family="Times,serif" font-size="14.00">ProjectsController</text>
</g>
<!-- ApplicationController&#45;&gt;ProjectsController -->
<g id="edge12" class="edge"><title>ApplicationController&#45;&gt;ProjectsController</title>
<path fill="none" stroke="black" d="M896.342,-466.449C1033.41,-489.154 1339.3,-539.825 1470.87,-561.62"/>
</g>
<!-- ProtocolsController -->
<g id="node15" class="node"><title>ProtocolsController</title>
<ellipse fill="none" stroke="black" cx="1524.53" cy="-882.485" rx="79.7316" ry="18"/>
<text text-anchor="middle" x="1524.53" y="-878.285" font-family="Times,serif" font-size="14.00">ProtocolsController</text>
</g>
<!-- ApplicationController&#45;&gt;ProtocolsController -->
<g id="edge13" class="edge"><title>ApplicationController&#45;&gt;ProtocolsController</title>
<path fill="none" stroke="black" d="M866.138,-471.414C944.193,-505.289 1125.95,-587.61 1266.53,-677.758 1361.59,-738.718 1463.53,-827.469 1505.16,-864.848"/>
</g>
<!-- PublicRepositoriesController -->
<g id="node16" class="node"><title>PublicRepositoriesController</title>
<ellipse fill="none" stroke="black" cx="965.973" cy="-913.867" rx="113.041" ry="18"/>
<text text-anchor="middle" x="965.973" y="-909.667" font-family="Times,serif" font-size="14.00">PublicRepositoriesController</text>
</g>
<!-- ApplicationController&#45;&gt;PublicRepositoriesController -->
<g id="edge14" class="edge"><title>ApplicationController&#45;&gt;PublicRepositoriesController</title>
<path fill="none" stroke="black" d="M824.288,-473.136C817.667,-511.183 805.529,-602.09 824.829,-674.678 849.176,-766.242 919.305,-858.165 950.589,-895.949"/>
</g>
<!-- PublicationsController -->
<g id="node17" class="node"><title>PublicationsController</title>
<ellipse fill="none" stroke="black" cx="1028.35" cy="-463.019" rx="90.3637" ry="18"/>
<text text-anchor="middle" x="1028.35" y="-458.819" font-family="Times,serif" font-size="14.00">PublicationsController</text>
</g>
<!-- ApplicationController&#45;&gt;PublicationsController -->
<g id="edge15" class="edge"><title>ApplicationController&#45;&gt;PublicationsController</title>
<path fill="none" stroke="black" d="M914.573,-458.52C922.937,-458.851 931.429,-459.187 939.81,-459.518"/>
</g>
<!-- SamplesController -->
<g id="node18" class="node"><title>SamplesController</title>
<ellipse fill="none" stroke="black" cx="1200.39" cy="-200.294" rx="76.3484" ry="18"/>
<text text-anchor="middle" x="1200.39" y="-196.094" font-family="Times,serif" font-size="14.00">SamplesController</text>
</g>
<!-- ApplicationController&#45;&gt;SamplesController -->
<g id="edge16" class="edge"><title>ApplicationController&#45;&gt;SamplesController</title>
<path fill="none" stroke="black" d="M853.078,-437.775C921.058,-391.292 1107.02,-264.14 1175.04,-217.63"/>
</g>
<!-- SessionsController -->
<g id="node19" class="node"><title>SessionsController</title>
<ellipse fill="none" stroke="black" cx="140.487" cy="-885.346" rx="76.8502" ry="18"/>
<text text-anchor="middle" x="140.487" y="-881.146" font-family="Times,serif" font-size="14.00">SessionsController</text>
</g>
<!-- ApplicationController&#45;&gt;SessionsController -->
<g id="edge17" class="edge"><title>ApplicationController&#45;&gt;SessionsController</title>
<path fill="none" stroke="black" d="M802.926,-472.599C748.516,-510.787 614.384,-603.957 498.525,-676.602 379.043,-751.519 232.642,-834.081 170.581,-868.667"/>
</g>
<!-- SoftwaresController -->
<g id="node20" class="node"><title>SoftwaresController</title>
<ellipse fill="none" stroke="black" cx="415.103" cy="-676.562" rx="81.644" ry="18"/>
<text text-anchor="middle" x="415.103" y="-672.362" font-family="Times,serif" font-size="14.00">SoftwaresController</text>
</g>
<!-- ApplicationController&#45;&gt;SoftwaresController -->
<g id="edge18" class="edge"><title>ApplicationController&#45;&gt;SoftwaresController</title>
<path fill="none" stroke="black" d="M796.404,-471.916C719.665,-513.102 523.099,-618.6 446.41,-659.759"/>
</g>
<!-- StaticPagesController -->
<g id="node21" class="node"><title>StaticPagesController</title>
<ellipse fill="none" stroke="black" cx="479.994" cy="-921.895" rx="87.4567" ry="18"/>
<text text-anchor="middle" x="479.994" y="-917.695" font-family="Times,serif" font-size="14.00">StaticPagesController</text>
</g>
<!-- ApplicationController&#45;&gt;StaticPagesController -->
<g id="edge19" class="edge"><title>ApplicationController&#45;&gt;StaticPagesController</title>
<path fill="none" stroke="black" d="M822.919,-473.193C812.212,-511.191 783.957,-601.078 740.335,-665.746 670.127,-769.826 552.785,-866.137 503.218,-904.435"/>
</g>
<!-- StrainsController -->
<g id="node22" class="node"><title>StrainsController</title>
<ellipse fill="none" stroke="black" cx="897.451" cy="-674.733" rx="71.0445" ry="18"/>
<text text-anchor="middle" x="897.451" y="-670.533" font-family="Times,serif" font-size="14.00">StrainsController</text>
</g>
<!-- ApplicationController&#45;&gt;StrainsController -->
<g id="edge20" class="edge"><title>ApplicationController&#45;&gt;StrainsController</title>
<path fill="none" stroke="black" d="M833.462,-473.062C846.53,-514.25 878.525,-615.084 891.669,-656.51"/>
</g>
<!-- TissuesController -->
<g id="node23" class="node"><title>TissuesController</title>
<ellipse fill="none" stroke="black" cx="408.562" cy="-442.515" rx="72.8612" ry="18"/>
<text text-anchor="middle" x="408.562" y="-438.315" font-family="Times,serif" font-size="14.00">TissuesController</text>
</g>
<!-- ApplicationController&#45;&gt;TissuesController -->
<g id="edge21" class="edge"><title>ApplicationController&#45;&gt;TissuesController</title>
<path fill="none" stroke="black" d="M740.136,-457.52C706.395,-458.079 667.503,-458.262 632.206,-457.297 580.278,-455.876 521.691,-451.917 477.51,-448.454"/>
</g>
<!-- UsersController -->
<g id="node24" class="node"><title>UsersController</title>
<ellipse fill="none" stroke="black" cx="1213.74" cy="-917.802" rx="66.6925" ry="18"/>
<text text-anchor="middle" x="1213.74" y="-913.602" font-family="Times,serif" font-size="14.00">UsersController</text>
</g>
<!-- ApplicationController&#45;&gt;UsersController -->
<g id="edge22" class="edge"><title>ApplicationController&#45;&gt;UsersController</title>
<path fill="none" stroke="black" d="M842.653,-472.943C904.097,-546.602 1137.53,-826.44 1198.89,-900"/>
</g>
</g>
</svg>
