<?xml version="1.0" encoding="UTF-8" standalone="no"?>
<!DOCTYPE svg PUBLIC "-//W3C//DTD SVG 1.1//EN"
 "http://www.w3.org/Graphics/SVG/1.1/DTD/svg11.dtd">
<!-- Generated by graphviz version 2.36.0 (20140111.2315)
 -->
<!-- Title: models_diagram Pages: 1 -->
<svg width="1707pt" height="1122pt"
 viewBox="0.00 0.00 1707.00 1122.00" xmlns="http://www.w3.org/2000/svg" xmlns:xlink="http://www.w3.org/1999/xlink">
<g id="graph0" class="graph" transform="scale(1 1) rotate(0) translate(4 1118)">
<title>models_diagram</title>
<polygon fill="white" stroke="none" points="-4,4 -4,-1118 1703,-1118 1703,4 -4,4"/>
<!-- _diagram_info -->
<g id="node1" class="node"><title>_diagram_info</title>
<text text-anchor="start" x="566.312" y="-1099.1" font-family="Times,serif" font-size="13.00">Models diagram</text>
<text text-anchor="start" x="566.312" y="-1086.1" font-family="Times,serif" font-size="13.00">Date: Oct 03 2014 &#45; 08:51</text>
<text text-anchor="start" x="566.312" y="-1073.1" font-family="Times,serif" font-size="13.00">Migration version: 20140820130919</text>
<text text-anchor="start" x="566.312" y="-1060.1" font-family="Times,serif" font-size="13.00">Generated by RailRoady 1.1.2</text>
<text text-anchor="start" x="566.312" y="-1047.1" font-family="Times,serif" font-size="13.00">http://railroady.prestonlee.com</text>
</g>
<!-- Asset -->
<g id="node2" class="node"><title>Asset</title>
<path fill="none" stroke="black" d="M515.543,-1C515.543,-1 628.457,-1 628.457,-1 634.457,-1 640.457,-7 640.457,-13 640.457,-13 640.457,-89 640.457,-89 640.457,-95 634.457,-101 628.457,-101 628.457,-101 515.543,-101 515.543,-101 509.543,-101 503.543,-95 503.543,-89 503.543,-89 503.543,-13 503.543,-13 503.543,-7 509.543,-1 515.543,-1"/>
<text text-anchor="middle" x="572" y="-85.8" font-family="Times,serif" font-size="14.00">Asset</text>
<polyline fill="none" stroke="black" points="503.543,-79 640.457,-79 "/>
<text text-anchor="start" x="511.543" y="-63.8" font-family="Times,serif" font-size="14.00">id :integer</text>
<text text-anchor="start" x="511.543" y="-49.8" font-family="Times,serif" font-size="14.00">attachment :string</text>
<text text-anchor="start" x="511.543" y="-35.8" font-family="Times,serif" font-size="14.00">user_id :integer</text>
<text text-anchor="start" x="511.543" y="-21.8" font-family="Times,serif" font-size="14.00">assetable_id :integer</text>
<text text-anchor="start" x="511.543" y="-7.8" font-family="Times,serif" font-size="14.00">assetable_type :string</text>
</g>
<!-- CellType -->
<g id="node3" class="node"><title>CellType</title>
<path fill="none" stroke="black" d="M1227.49,-667C1227.49,-667 1336.51,-667 1336.51,-667 1342.51,-667 1348.51,-673 1348.51,-679 1348.51,-679 1348.51,-741 1348.51,-741 1348.51,-747 1342.51,-753 1336.51,-753 1336.51,-753 1227.49,-753 1227.49,-753 1221.49,-753 1215.49,-747 1215.49,-741 1215.49,-741 1215.49,-679 1215.49,-679 1215.49,-673 1221.49,-667 1227.49,-667"/>
<text text-anchor="middle" x="1282" y="-737.8" font-family="Times,serif" font-size="14.00">CellType</text>
<polyline fill="none" stroke="black" points="1215.49,-731 1348.51,-731 "/>
<text text-anchor="start" x="1223.49" y="-715.8" font-family="Times,serif" font-size="14.00">id :integer</text>
<text text-anchor="start" x="1223.49" y="-701.8" font-family="Times,serif" font-size="14.00">name :string</text>
<text text-anchor="start" x="1223.49" y="-687.8" font-family="Times,serif" font-size="14.00">created_at :datetime</text>
<text text-anchor="start" x="1223.49" y="-673.8" font-family="Times,serif" font-size="14.00">updated_at :datetime</text>
</g>
<!-- Sample -->
<g id="node17" class="node"><title>Sample</title>
<path fill="none" stroke="black" d="M1108.38,-361C1108.38,-361 1265.62,-361 1265.62,-361 1271.62,-361 1277.62,-367 1277.62,-373 1277.62,-373 1277.62,-589 1277.62,-589 1277.62,-595 1271.62,-601 1265.62,-601 1265.62,-601 1108.38,-601 1108.38,-601 1102.38,-601 1096.38,-595 1096.38,-589 1096.38,-589 1096.38,-373 1096.38,-373 1096.38,-367 1102.38,-361 1108.38,-361"/>
<text text-anchor="middle" x="1187" y="-585.8" font-family="Times,serif" font-size="14.00">Sample</text>
<polyline fill="none" stroke="black" points="1096.38,-579 1277.62,-579 "/>
<text text-anchor="start" x="1104.38" y="-563.8" font-family="Times,serif" font-size="14.00">id :integer</text>
<text text-anchor="start" x="1104.38" y="-549.8" font-family="Times,serif" font-size="14.00">name :string</text>
<text text-anchor="start" x="1104.38" y="-535.8" font-family="Times,serif" font-size="14.00">title :string</text>
<text text-anchor="start" x="1104.38" y="-521.8" font-family="Times,serif" font-size="14.00">cell_type_id :integer</text>
<text text-anchor="start" x="1104.38" y="-507.8" font-family="Times,serif" font-size="14.00">tissue_id :integer</text>
<text text-anchor="start" x="1104.38" y="-493.8" font-family="Times,serif" font-size="14.00">organism_id :integer</text>
<text text-anchor="start" x="1104.38" y="-479.8" font-family="Times,serif" font-size="14.00">molecule_id :integer</text>
<text text-anchor="start" x="1104.38" y="-465.8" font-family="Times,serif" font-size="14.00">created_at :datetime</text>
<text text-anchor="start" x="1104.38" y="-451.8" font-family="Times,serif" font-size="14.00">updated_at :datetime</text>
<text text-anchor="start" x="1104.38" y="-437.8" font-family="Times,serif" font-size="14.00">strain_id :integer</text>
<text text-anchor="start" x="1104.38" y="-423.8" font-family="Times,serif" font-size="14.00">description :string</text>
<text text-anchor="start" x="1104.38" y="-409.8" font-family="Times,serif" font-size="14.00">notes :string</text>
<text text-anchor="start" x="1104.38" y="-395.8" font-family="Times,serif" font-size="14.00">project_id :integer</text>
<text text-anchor="start" x="1104.38" y="-381.8" font-family="Times,serif" font-size="14.00">user_id :integer</text>
<text text-anchor="start" x="1104.38" y="-367.8" font-family="Times,serif" font-size="14.00">number_of_samples :decimal</text>
</g>
<!-- CellType&#45;&gt;Sample -->
<g id="edge2" class="edge"><title>CellType&#45;&gt;Sample</title>
<path fill="none" stroke="#5f3004" d="M1261.12,-659.101C1254.78,-643.965 1247.52,-626.6 1240.06,-608.793"/>
<ellipse fill="none" stroke="#5f3004" cx="1262.81" cy="-663.145" rx="4.00001" ry="4.00001"/>
<ellipse fill="#5f3004" stroke="#5f3004" cx="1238.4" cy="-604.829" rx="4.00001" ry="4.00001"/>
</g>
<!-- DataProcessing -->
<g id="node4" class="node"><title>DataProcessing</title>
<path fill="none" stroke="black" d="M222.277,-146C222.277,-146 399.723,-146 399.723,-146 405.723,-146 411.723,-152 411.723,-158 411.723,-158 411.723,-304 411.723,-304 411.723,-310 405.723,-316 399.723,-316 399.723,-316 222.277,-316 222.277,-316 216.277,-316 210.277,-310 210.277,-304 210.277,-304 210.277,-158 210.277,-158 210.277,-152 216.277,-146 222.277,-146"/>
<text text-anchor="middle" x="311" y="-300.8" font-family="Times,serif" font-size="14.00">DataProcessing</text>
<polyline fill="none" stroke="black" points="210.277,-294 411.723,-294 "/>
<text text-anchor="start" x="218.277" y="-278.8" font-family="Times,serif" font-size="14.00">id :integer</text>
<text text-anchor="start" x="218.277" y="-264.8" font-family="Times,serif" font-size="14.00">data_processing_type_id :integer</text>
<text text-anchor="start" x="218.277" y="-250.8" font-family="Times,serif" font-size="14.00">software_id :integer</text>
<text text-anchor="start" x="218.277" y="-236.8" font-family="Times,serif" font-size="14.00">data_set_id :integer</text>
<text text-anchor="start" x="218.277" y="-222.8" font-family="Times,serif" font-size="14.00">created_at :datetime</text>
<text text-anchor="start" x="218.277" y="-208.8" font-family="Times,serif" font-size="14.00">updated_at :datetime</text>
<text text-anchor="start" x="218.277" y="-194.8" font-family="Times,serif" font-size="14.00">description :string</text>
<text text-anchor="start" x="218.277" y="-180.8" font-family="Times,serif" font-size="14.00">command :string</text>
<text text-anchor="start" x="218.277" y="-166.8" font-family="Times,serif" font-size="14.00">note :string</text>
<text text-anchor="start" x="218.277" y="-152.8" font-family="Times,serif" font-size="14.00">user_id :integer</text>
</g>
<!-- DataProcessing&#45;&gt;Asset -->
<g id="edge4" class="edge"><title>DataProcessing&#45;&gt;Asset</title>
<path fill="none" stroke="#a3ef37" d="M418.747,-156.517C444.299,-139.091 471.051,-120.846 494.921,-104.567"/>
<ellipse fill="none" stroke="#a3ef37" cx="415.214" cy="-158.927" rx="4.00002" ry="4.00002"/>
<polygon fill="#a3ef37" stroke="#a3ef37" points="494.976,-104.53 505.773,-102.613 499.107,-101.713 503.237,-98.8956 503.237,-98.8956 503.237,-98.8956 499.107,-101.713 500.702,-95.1779 494.976,-104.53 494.976,-104.53"/>
</g>
<!-- DataProcessingType -->
<g id="node5" class="node"><title>DataProcessingType</title>
<path fill="none" stroke="black" d="M11.4946,-667C11.4946,-667 120.505,-667 120.505,-667 126.505,-667 132.505,-673 132.505,-679 132.505,-679 132.505,-741 132.505,-741 132.505,-747 126.505,-753 120.505,-753 120.505,-753 11.4946,-753 11.4946,-753 5.49463,-753 -0.505371,-747 -0.505371,-741 -0.505371,-741 -0.505371,-679 -0.505371,-679 -0.505371,-673 5.49463,-667 11.4946,-667"/>
<text text-anchor="middle" x="66" y="-737.8" font-family="Times,serif" font-size="14.00">DataProcessingType</text>
<polyline fill="none" stroke="black" points="-0.505371,-731 132.505,-731 "/>
<text text-anchor="start" x="7.49463" y="-715.8" font-family="Times,serif" font-size="14.00">id :integer</text>
<text text-anchor="start" x="7.49463" y="-701.8" font-family="Times,serif" font-size="14.00">name :string</text>
<text text-anchor="start" x="7.49463" y="-687.8" font-family="Times,serif" font-size="14.00">created_at :datetime</text>
<text text-anchor="start" x="7.49463" y="-673.8" font-family="Times,serif" font-size="14.00">updated_at :datetime</text>
</g>
<!-- DataProcessingType&#45;&gt;DataProcessing -->
<g id="edge6" class="edge"><title>DataProcessingType&#45;&gt;DataProcessing</title>
<path fill="none" stroke="#d00594" d="M67.3117,-658.862C71.3476,-587.232 87.0669,-453.904 147,-360 161.767,-336.862 182.22,-316.181 203.681,-298.538"/>
<ellipse fill="none" stroke="#d00594" cx="67.1033" cy="-662.868" rx="4" ry="4"/>
<ellipse fill="#d00594" stroke="#d00594" cx="206.946" cy="-295.91" rx="4.00002" ry="4.00002"/>
</g>
<!-- DataSet -->
<g id="node6" class="node"><title>DataSet</title>
<path fill="none" stroke="black" d="M398.439,-403C398.439,-403 531.561,-403 531.561,-403 537.561,-403 543.561,-409 543.561,-415 543.561,-415 543.561,-547 543.561,-547 543.561,-553 537.561,-559 531.561,-559 531.561,-559 398.439,-559 398.439,-559 392.439,-559 386.439,-553 386.439,-547 386.439,-547 386.439,-415 386.439,-415 386.439,-409 392.439,-403 398.439,-403"/>
<text text-anchor="middle" x="465" y="-543.8" font-family="Times,serif" font-size="14.00">DataSet</text>
<polyline fill="none" stroke="black" points="386.439,-537 543.561,-537 "/>
<text text-anchor="start" x="394.439" y="-521.8" font-family="Times,serif" font-size="14.00">id :integer</text>
<text text-anchor="start" x="394.439" y="-507.8" font-family="Times,serif" font-size="14.00">data_set_type_id :integer</text>
<text text-anchor="start" x="394.439" y="-493.8" font-family="Times,serif" font-size="14.00">project_id :integer</text>
<text text-anchor="start" x="394.439" y="-479.8" font-family="Times,serif" font-size="14.00">create_date :date</text>
<text text-anchor="start" x="394.439" y="-465.8" font-family="Times,serif" font-size="14.00">name :string</text>
<text text-anchor="start" x="394.439" y="-451.8" font-family="Times,serif" font-size="14.00">comment :string</text>
<text text-anchor="start" x="394.439" y="-437.8" font-family="Times,serif" font-size="14.00">created_at :datetime</text>
<text text-anchor="start" x="394.439" y="-423.8" font-family="Times,serif" font-size="14.00">updated_at :datetime</text>
<text text-anchor="start" x="394.439" y="-409.8" font-family="Times,serif" font-size="14.00">user_id :integer</text>
</g>
<!-- DataSet&#45;&gt;Asset -->
<g id="edge9" class="edge"><title>DataSet&#45;&gt;Asset</title>
<path fill="none" stroke="#6557eb" d="M486.211,-395.155C507.209,-311.162 538.81,-184.761 557.225,-111.101"/>
<ellipse fill="none" stroke="#6557eb" cx="485.223" cy="-399.107" rx="4.00001" ry="4.00001"/>
<polygon fill="#6557eb" stroke="#6557eb" points="557.308,-110.769 564.099,-102.159 558.52,-105.918 559.733,-101.068 559.733,-101.068 559.733,-101.068 558.52,-105.918 555.367,-99.9763 557.308,-110.769 557.308,-110.769"/>
</g>
<!-- DataSet&#45;&gt;DataProcessing -->
<g id="edge8" class="edge"><title>DataSet&#45;&gt;DataProcessing</title>
<path fill="none" stroke="#f2551a" d="M412.881,-396.068C398.672,-373.187 383.197,-348.265 368.698,-324.916"/>
<ellipse fill="none" stroke="#f2551a" cx="415.007" cy="-399.493" rx="4.00002" ry="4.00002"/>
<polygon fill="#f2551a" stroke="#f2551a" points="368.68,-324.887 367.227,-314.017 366.042,-320.639 363.404,-316.391 363.404,-316.391 363.404,-316.391 366.042,-320.639 359.581,-318.765 368.68,-324.887 368.68,-324.887"/>
</g>
<!-- DataSetType -->
<g id="node7" class="node"><title>DataSetType</title>
<path fill="none" stroke="black" d="M239.495,-667C239.495,-667 348.505,-667 348.505,-667 354.505,-667 360.505,-673 360.505,-679 360.505,-679 360.505,-741 360.505,-741 360.505,-747 354.505,-753 348.505,-753 348.505,-753 239.495,-753 239.495,-753 233.495,-753 227.495,-747 227.495,-741 227.495,-741 227.495,-679 227.495,-679 227.495,-673 233.495,-667 239.495,-667"/>
<text text-anchor="middle" x="294" y="-737.8" font-family="Times,serif" font-size="14.00">DataSetType</text>
<polyline fill="none" stroke="black" points="227.495,-731 360.505,-731 "/>
<text text-anchor="start" x="235.495" y="-715.8" font-family="Times,serif" font-size="14.00">id :integer</text>
<text text-anchor="start" x="235.495" y="-701.8" font-family="Times,serif" font-size="14.00">name :string</text>
<text text-anchor="start" x="235.495" y="-687.8" font-family="Times,serif" font-size="14.00">created_at :datetime</text>
<text text-anchor="start" x="235.495" y="-673.8" font-family="Times,serif" font-size="14.00">updated_at :datetime</text>
</g>
<!-- DataSetType&#45;&gt;DataSet -->
<g id="edge11" class="edge"><title>DataSetType&#45;&gt;DataSet</title>
<path fill="none" stroke="#71cbef" d="M330.672,-660.318C351.01,-633.32 376.891,-598.963 400.497,-567.627"/>
<ellipse fill="none" stroke="#71cbef" cx="328.17" cy="-663.64" rx="4.00002" ry="4.00002"/>
<polygon fill="#71cbef" stroke="#71cbef" points="400.748,-567.293 410.359,-562.014 403.757,-563.3 406.765,-559.306 406.765,-559.306 406.765,-559.306 403.757,-563.3 403.171,-556.598 400.748,-567.293 400.748,-567.293"/>
</g>
<!-- Disease -->
<g id="node8" class="node"><title>Disease</title>
<path fill="none" stroke="black" d="M1493.49,-667C1493.49,-667 1602.51,-667 1602.51,-667 1608.51,-667 1614.51,-673 1614.51,-679 1614.51,-679 1614.51,-741 1614.51,-741 1614.51,-747 1608.51,-753 1602.51,-753 1602.51,-753 1493.49,-753 1493.49,-753 1487.49,-753 1481.49,-747 1481.49,-741 1481.49,-741 1481.49,-679 1481.49,-679 1481.49,-673 1487.49,-667 1493.49,-667"/>
<text text-anchor="middle" x="1548" y="-737.8" font-family="Times,serif" font-size="14.00">Disease</text>
<polyline fill="none" stroke="black" points="1481.49,-731 1614.51,-731 "/>
<text text-anchor="start" x="1489.49" y="-715.8" font-family="Times,serif" font-size="14.00">id :integer</text>
<text text-anchor="start" x="1489.49" y="-701.8" font-family="Times,serif" font-size="14.00">name :string</text>
<text text-anchor="start" x="1489.49" y="-687.8" font-family="Times,serif" font-size="14.00">created_at :datetime</text>
<text text-anchor="start" x="1489.49" y="-673.8" font-family="Times,serif" font-size="14.00">updated_at :datetime</text>
</g>
<!-- ExperimentDetail -->
<g id="node9" class="node"><title>ExperimentDetail</title>
<path fill="none" stroke="black" d="M1064.49,-139C1064.49,-139 1173.51,-139 1173.51,-139 1179.51,-139 1185.51,-145 1185.51,-151 1185.51,-151 1185.51,-311 1185.51,-311 1185.51,-317 1179.51,-323 1173.51,-323 1173.51,-323 1064.49,-323 1064.49,-323 1058.49,-323 1052.49,-317 1052.49,-311 1052.49,-311 1052.49,-151 1052.49,-151 1052.49,-145 1058.49,-139 1064.49,-139"/>
<text text-anchor="middle" x="1119" y="-307.8" font-family="Times,serif" font-size="14.00">ExperimentDetail</text>
<polyline fill="none" stroke="black" points="1052.49,-301 1185.51,-301 "/>
<text text-anchor="start" x="1060.49" y="-285.8" font-family="Times,serif" font-size="14.00">id :integer</text>
<text text-anchor="start" x="1060.49" y="-271.8" font-family="Times,serif" font-size="14.00">sample_id :integer</text>
<text text-anchor="start" x="1060.49" y="-257.8" font-family="Times,serif" font-size="14.00">platform_id :integer</text>
<text text-anchor="start" x="1060.49" y="-243.8" font-family="Times,serif" font-size="14.00">protocol_id :integer</text>
<text text-anchor="start" x="1060.49" y="-229.8" font-family="Times,serif" font-size="14.00">disease_id :integer</text>
<text text-anchor="start" x="1060.49" y="-215.8" font-family="Times,serif" font-size="14.00">created_at :datetime</text>
<text text-anchor="start" x="1060.49" y="-201.8" font-family="Times,serif" font-size="14.00">updated_at :datetime</text>
<text text-anchor="start" x="1060.49" y="-187.8" font-family="Times,serif" font-size="14.00">name :string</text>
<text text-anchor="start" x="1060.49" y="-173.8" font-family="Times,serif" font-size="14.00">comment :string</text>
<text text-anchor="start" x="1060.49" y="-159.8" font-family="Times,serif" font-size="14.00">description :string</text>
<text text-anchor="start" x="1060.49" y="-145.8" font-family="Times,serif" font-size="14.00">user_id :integer</text>
</g>
<!-- Disease&#45;&gt;ExperimentDetail -->
<g id="edge13" class="edge"><title>Disease&#45;&gt;ExperimentDetail</title>
<path fill="none" stroke="#18025b" d="M1517.31,-659.833C1471.83,-589.107 1381.6,-456.558 1286,-360 1257.81,-331.522 1223.11,-303.946 1192.66,-281.728"/>
<ellipse fill="none" stroke="#18025b" cx="1519.67" cy="-663.529" rx="4.00002" ry="4.00002"/>
<ellipse fill="#18025b" stroke="#18025b" cx="1189.07" cy="-279.127" rx="4.00002" ry="4.00002"/>
</g>
<!-- Molecule -->
<g id="node10" class="node"><title>Molecule</title>
<path fill="none" stroke="black" d="M1037.49,-667C1037.49,-667 1146.51,-667 1146.51,-667 1152.51,-667 1158.51,-673 1158.51,-679 1158.51,-679 1158.51,-741 1158.51,-741 1158.51,-747 1152.51,-753 1146.51,-753 1146.51,-753 1037.49,-753 1037.49,-753 1031.49,-753 1025.49,-747 1025.49,-741 1025.49,-741 1025.49,-679 1025.49,-679 1025.49,-673 1031.49,-667 1037.49,-667"/>
<text text-anchor="middle" x="1092" y="-737.8" font-family="Times,serif" font-size="14.00">Molecule</text>
<polyline fill="none" stroke="black" points="1025.49,-731 1158.51,-731 "/>
<text text-anchor="start" x="1033.49" y="-715.8" font-family="Times,serif" font-size="14.00">id :integer</text>
<text text-anchor="start" x="1033.49" y="-701.8" font-family="Times,serif" font-size="14.00">name :string</text>
<text text-anchor="start" x="1033.49" y="-687.8" font-family="Times,serif" font-size="14.00">created_at :datetime</text>
<text text-anchor="start" x="1033.49" y="-673.8" font-family="Times,serif" font-size="14.00">updated_at :datetime</text>
</g>
<!-- Molecule&#45;&gt;Sample -->
<g id="edge16" class="edge"><title>Molecule&#45;&gt;Sample</title>
<path fill="none" stroke="#964764" d="M1112.88,-659.101C1119.22,-643.965 1126.48,-626.6 1133.94,-608.793"/>
<ellipse fill="none" stroke="#964764" cx="1111.19" cy="-663.145" rx="4.00001" ry="4.00001"/>
<ellipse fill="#964764" stroke="#964764" cx="1135.6" cy="-604.829" rx="4.00001" ry="4.00001"/>
</g>
<!-- Organism -->
<g id="node11" class="node"><title>Organism</title>
<path fill="none" stroke="black" d="M924.495,-868C924.495,-868 1033.51,-868 1033.51,-868 1039.51,-868 1045.51,-874 1045.51,-880 1045.51,-880 1045.51,-942 1045.51,-942 1045.51,-948 1039.51,-954 1033.51,-954 1033.51,-954 924.495,-954 924.495,-954 918.495,-954 912.495,-948 912.495,-942 912.495,-942 912.495,-880 912.495,-880 912.495,-874 918.495,-868 924.495,-868"/>
<text text-anchor="middle" x="979" y="-938.8" font-family="Times,serif" font-size="14.00">Organism</text>
<polyline fill="none" stroke="black" points="912.495,-932 1045.51,-932 "/>
<text text-anchor="start" x="920.495" y="-916.8" font-family="Times,serif" font-size="14.00">id :integer</text>
<text text-anchor="start" x="920.495" y="-902.8" font-family="Times,serif" font-size="14.00">name :string</text>
<text text-anchor="start" x="920.495" y="-888.8" font-family="Times,serif" font-size="14.00">created_at :datetime</text>
<text text-anchor="start" x="920.495" y="-874.8" font-family="Times,serif" font-size="14.00">updated_at :datetime</text>
</g>
<!-- Organism&#45;&gt;Sample -->
<g id="edge18" class="edge"><title>Organism&#45;&gt;Sample</title>
<path fill="none" stroke="#3b9796" d="M1013.28,-861.736C1026.41,-846.024 1042.48,-829.649 1060,-818 1101.78,-790.221 1136.38,-821.748 1167,-782 1187.66,-755.178 1192.52,-678.503 1192.28,-609.388"/>
<ellipse fill="none" stroke="#3b9796" cx="1010.74" cy="-864.846" rx="4.00002" ry="4.00002"/>
<ellipse fill="#3b9796" stroke="#3b9796" cx="1192.26" cy="-605" rx="4" ry="4"/>
</g>
<!-- Platform -->
<g id="node12" class="node"><title>Platform</title>
<path fill="none" stroke="black" d="M893.495,-438C893.495,-438 1002.51,-438 1002.51,-438 1008.51,-438 1014.51,-444 1014.51,-450 1014.51,-450 1014.51,-512 1014.51,-512 1014.51,-518 1008.51,-524 1002.51,-524 1002.51,-524 893.495,-524 893.495,-524 887.495,-524 881.495,-518 881.495,-512 881.495,-512 881.495,-450 881.495,-450 881.495,-444 887.495,-438 893.495,-438"/>
<text text-anchor="middle" x="948" y="-508.8" font-family="Times,serif" font-size="14.00">Platform</text>
<polyline fill="none" stroke="black" points="881.495,-502 1014.51,-502 "/>
<text text-anchor="start" x="889.495" y="-486.8" font-family="Times,serif" font-size="14.00">id :integer</text>
<text text-anchor="start" x="889.495" y="-472.8" font-family="Times,serif" font-size="14.00">name :string</text>
<text text-anchor="start" x="889.495" y="-458.8" font-family="Times,serif" font-size="14.00">created_at :datetime</text>
<text text-anchor="start" x="889.495" y="-444.8" font-family="Times,serif" font-size="14.00">updated_at :datetime</text>
</g>
<!-- Platform&#45;&gt;ExperimentDetail -->
<g id="edge20" class="edge"><title>Platform&#45;&gt;ExperimentDetail</title>
<path fill="none" stroke="#3448bd" d="M981.696,-431.131C1001.57,-402.313 1027.43,-364.804 1051.34,-330.122"/>
<ellipse fill="none" stroke="#3448bd" cx="979.278" cy="-434.637" rx="4.00002" ry="4.00002"/>
<ellipse fill="#3448bd" stroke="#3448bd" cx="1053.83" cy="-326.519" rx="4.00002" ry="4.00002"/>
</g>
<!-- Project -->
<g id="node13" class="node"><title>Project</title>
<path fill="none" stroke="black" d="M505.495,-639C505.495,-639 614.505,-639 614.505,-639 620.505,-639 626.505,-645 626.505,-651 626.505,-651 626.505,-769 626.505,-769 626.505,-775 620.505,-781 614.505,-781 614.505,-781 505.495,-781 505.495,-781 499.495,-781 493.495,-775 493.495,-769 493.495,-769 493.495,-651 493.495,-651 493.495,-645 499.495,-639 505.495,-639"/>
<text text-anchor="middle" x="560" y="-765.8" font-family="Times,serif" font-size="14.00">Project</text>
<polyline fill="none" stroke="black" points="493.495,-759 626.505,-759 "/>
<text text-anchor="start" x="501.495" y="-743.8" font-family="Times,serif" font-size="14.00">id :integer</text>
<text text-anchor="start" x="501.495" y="-729.8" font-family="Times,serif" font-size="14.00">user_id :integer</text>
<text text-anchor="start" x="501.495" y="-715.8" font-family="Times,serif" font-size="14.00">title :string</text>
<text text-anchor="start" x="501.495" y="-701.8" font-family="Times,serif" font-size="14.00">summary :string</text>
<text text-anchor="start" x="501.495" y="-687.8" font-family="Times,serif" font-size="14.00">start_date :date</text>
<text text-anchor="start" x="501.495" y="-673.8" font-family="Times,serif" font-size="14.00">end_date :date</text>
<text text-anchor="start" x="501.495" y="-659.8" font-family="Times,serif" font-size="14.00">created_at :datetime</text>
<text text-anchor="start" x="501.495" y="-645.8" font-family="Times,serif" font-size="14.00">updated_at :datetime</text>
</g>
<!-- Project&#45;&gt;Asset -->
<g id="edge22" class="edge"><title>Project&#45;&gt;Asset</title>
<path fill="none" stroke="#a565fd" d="M561.431,-630.669C563.861,-497.599 568.744,-230.279 570.916,-111.374"/>
<ellipse fill="none" stroke="#a565fd" cx="561.357" cy="-634.69" rx="4" ry="4"/>
<polygon fill="#a565fd" stroke="#a565fd" points="570.922,-111.019 575.604,-101.103 571.013,-106.02 571.105,-101.021 571.105,-101.021 571.105,-101.021 571.013,-106.02 566.605,-100.939 570.922,-111.019 570.922,-111.019"/>
</g>
<!-- Project&#45;&gt;DataSet -->
<g id="edge24" class="edge"><title>Project&#45;&gt;DataSet</title>
<path fill="none" stroke="#2b27f1" d="M527.457,-631.239C518.989,-611.006 509.815,-589.084 501.172,-568.432"/>
<ellipse fill="none" stroke="#2b27f1" cx="529.048" cy="-635.04" rx="4.00002" ry="4.00002"/>
<polygon fill="#2b27f1" stroke="#2b27f1" points="501.104,-568.268 501.394,-557.306 499.173,-563.656 497.243,-559.044 497.243,-559.044 497.243,-559.044 499.173,-563.656 493.092,-560.781 501.104,-568.268 501.104,-568.268"/>
</g>
<!-- Publication -->
<g id="node16" class="node"><title>Publication</title>
<path fill="none" stroke="black" d="M649.546,-410C649.546,-410 804.454,-410 804.454,-410 810.454,-410 816.454,-416 816.454,-422 816.454,-422 816.454,-540 816.454,-540 816.454,-546 810.454,-552 804.454,-552 804.454,-552 649.546,-552 649.546,-552 643.546,-552 637.546,-546 637.546,-540 637.546,-540 637.546,-422 637.546,-422 637.546,-416 643.546,-410 649.546,-410"/>
<text text-anchor="middle" x="727" y="-536.8" font-family="Times,serif" font-size="14.00">Publication</text>
<polyline fill="none" stroke="black" points="637.546,-530 816.454,-530 "/>
<text text-anchor="start" x="645.546" y="-514.8" font-family="Times,serif" font-size="14.00">id :integer</text>
<text text-anchor="start" x="645.546" y="-500.8" font-family="Times,serif" font-size="14.00">public_repository_id :integer</text>
<text text-anchor="start" x="645.546" y="-486.8" font-family="Times,serif" font-size="14.00">DOI :string</text>
<text text-anchor="start" x="645.546" y="-472.8" font-family="Times,serif" font-size="14.00">created_at :datetime</text>
<text text-anchor="start" x="645.546" y="-458.8" font-family="Times,serif" font-size="14.00">updated_at :datetime</text>
<text text-anchor="start" x="645.546" y="-444.8" font-family="Times,serif" font-size="14.00">project_id :integer</text>
<text text-anchor="start" x="645.546" y="-430.8" font-family="Times,serif" font-size="14.00">url :string</text>
<text text-anchor="start" x="645.546" y="-416.8" font-family="Times,serif" font-size="14.00">user_id :integer</text>
</g>
<!-- Project&#45;&gt;Publication -->
<g id="edge25" class="edge"><title>Project&#45;&gt;Publication</title>
<path fill="none" stroke="#966a39" d="M616.484,-632.222C633.499,-609.093 652.192,-583.685 669.286,-560.449"/>
<ellipse fill="none" stroke="#966a39" cx="614.067" cy="-635.508" rx="4.00002" ry="4.00002"/>
<polygon fill="#966a39" stroke="#966a39" points="669.335,-560.383 678.885,-554.995 672.298,-556.356 675.261,-552.328 675.261,-552.328 675.261,-552.328 672.298,-556.356 671.636,-549.662 669.335,-560.383 669.335,-560.383"/>
</g>
<!-- Project&#45;&gt;Sample -->
<g id="edge23" class="edge"><title>Project&#45;&gt;Sample</title>
<path fill="none" stroke="#c9f5ee" d="M634.608,-687.371C687.712,-672.397 760.902,-652.611 826,-638 912.845,-618.508 941.238,-637.169 1023,-602 1045.22,-592.443 1067.3,-579.399 1087.72,-565.421"/>
<ellipse fill="none" stroke="#c9f5ee" cx="630.441" cy="-688.549" rx="4.00001" ry="4.00001"/>
<polygon fill="#c9f5ee" stroke="#c9f5ee" points="1087.86,-565.322 1098.64,-563.287 1091.96,-562.459 1096.06,-559.597 1096.06,-559.597 1096.06,-559.597 1091.96,-562.459 1093.49,-555.907 1087.86,-565.322 1087.86,-565.322"/>
</g>
<!-- Protocol -->
<g id="node14" class="node"><title>Protocol</title>
<path fill="none" stroke="black" d="M847.495,-667C847.495,-667 956.505,-667 956.505,-667 962.505,-667 968.505,-673 968.505,-679 968.505,-679 968.505,-741 968.505,-741 968.505,-747 962.505,-753 956.505,-753 956.505,-753 847.495,-753 847.495,-753 841.495,-753 835.495,-747 835.495,-741 835.495,-741 835.495,-679 835.495,-679 835.495,-673 841.495,-667 847.495,-667"/>
<text text-anchor="middle" x="902" y="-737.8" font-family="Times,serif" font-size="14.00">Protocol</text>
<polyline fill="none" stroke="black" points="835.495,-731 968.505,-731 "/>
<text text-anchor="start" x="843.495" y="-715.8" font-family="Times,serif" font-size="14.00">id :integer</text>
<text text-anchor="start" x="843.495" y="-701.8" font-family="Times,serif" font-size="14.00">name :string</text>
<text text-anchor="start" x="843.495" y="-687.8" font-family="Times,serif" font-size="14.00">created_at :datetime</text>
<text text-anchor="start" x="843.495" y="-673.8" font-family="Times,serif" font-size="14.00">updated_at :datetime</text>
</g>
<!-- Protocol&#45;&gt;ExperimentDetail -->
<g id="edge27" class="edge"><title>Protocol&#45;&gt;ExperimentDetail</title>
<path fill="none" stroke="#462fb7" d="M956.469,-661.14C988.298,-633.123 1022.38,-603.015 1023,-602 1026.64,-596.068 1066.75,-438.944 1093.96,-331.382"/>
<ellipse fill="none" stroke="#462fb7" cx="953.146" cy="-664.064" rx="4.00002" ry="4.00002"/>
<ellipse fill="#462fb7" stroke="#462fb7" cx="1095" cy="-327.28" rx="4.00001" ry="4.00001"/>
</g>
<!-- PublicRepository -->
<g id="node15" class="node"><title>PublicRepository</title>
<path fill="none" stroke="black" d="M1114.49,-854C1114.49,-854 1223.51,-854 1223.51,-854 1229.51,-854 1235.51,-860 1235.51,-866 1235.51,-866 1235.51,-956 1235.51,-956 1235.51,-962 1229.51,-968 1223.51,-968 1223.51,-968 1114.49,-968 1114.49,-968 1108.49,-968 1102.49,-962 1102.49,-956 1102.49,-956 1102.49,-866 1102.49,-866 1102.49,-860 1108.49,-854 1114.49,-854"/>
<text text-anchor="middle" x="1169" y="-952.8" font-family="Times,serif" font-size="14.00">PublicRepository</text>
<polyline fill="none" stroke="black" points="1102.49,-946 1235.51,-946 "/>
<text text-anchor="start" x="1110.49" y="-930.8" font-family="Times,serif" font-size="14.00">id :integer</text>
<text text-anchor="start" x="1110.49" y="-916.8" font-family="Times,serif" font-size="14.00">name :string</text>
<text text-anchor="start" x="1110.49" y="-902.8" font-family="Times,serif" font-size="14.00">url :string</text>
<text text-anchor="start" x="1110.49" y="-888.8" font-family="Times,serif" font-size="14.00">record_id :string</text>
<text text-anchor="start" x="1110.49" y="-874.8" font-family="Times,serif" font-size="14.00">created_at :datetime</text>
<text text-anchor="start" x="1110.49" y="-860.8" font-family="Times,serif" font-size="14.00">updated_at :datetime</text>
</g>
<!-- Sample&#45;&gt;ExperimentDetail -->
<g id="edge31" class="edge"><title>Sample&#45;&gt;ExperimentDetail</title>
<path fill="none" stroke="#6ebf1b" d="M1152.18,-353.005C1150.32,-346.226 1148.46,-339.459 1146.63,-332.784"/>
<ellipse fill="none" stroke="#6ebf1b" cx="1153.24" cy="-356.864" rx="4.00001" ry="4.00001"/>
<polygon fill="#6ebf1b" stroke="#6ebf1b" points="1146.62,-332.726 1148.31,-321.892 1145.3,-327.904 1143.97,-323.082 1143.97,-323.082 1143.97,-323.082 1145.3,-327.904 1139.63,-324.272 1146.62,-332.726 1146.62,-332.726"/>
</g>
<!-- Software -->
<g id="node18" class="node"><title>Software</title>
<path fill="none" stroke="black" d="M205.495,-431C205.495,-431 314.505,-431 314.505,-431 320.505,-431 326.505,-437 326.505,-443 326.505,-443 326.505,-519 326.505,-519 326.505,-525 320.505,-531 314.505,-531 314.505,-531 205.495,-531 205.495,-531 199.495,-531 193.495,-525 193.495,-519 193.495,-519 193.495,-443 193.495,-443 193.495,-437 199.495,-431 205.495,-431"/>
<text text-anchor="middle" x="260" y="-515.8" font-family="Times,serif" font-size="14.00">Software</text>
<polyline fill="none" stroke="black" points="193.495,-509 326.505,-509 "/>
<text text-anchor="start" x="201.495" y="-493.8" font-family="Times,serif" font-size="14.00">id :integer</text>
<text text-anchor="start" x="201.495" y="-479.8" font-family="Times,serif" font-size="14.00">name :string</text>
<text text-anchor="start" x="201.495" y="-465.8" font-family="Times,serif" font-size="14.00">version :string</text>
<text text-anchor="start" x="201.495" y="-451.8" font-family="Times,serif" font-size="14.00">created_at :datetime</text>
<text text-anchor="start" x="201.495" y="-437.8" font-family="Times,serif" font-size="14.00">updated_at :datetime</text>
</g>
<!-- Software&#45;&gt;DataProcessing -->
<g id="edge33" class="edge"><title>Software&#45;&gt;DataProcessing</title>
<path fill="none" stroke="#bdc196" d="M271.749,-422.865C277.634,-394.252 284.911,-358.862 291.596,-326.358"/>
<ellipse fill="none" stroke="#bdc196" cx="270.943" cy="-426.789" rx="4.00001" ry="4.00001"/>
<polygon fill="#bdc196" stroke="#bdc196" points="291.634,-326.17 298.057,-317.281 292.642,-321.272 293.649,-316.374 293.649,-316.374 293.649,-316.374 292.642,-321.272 289.241,-315.468 291.634,-326.17 291.634,-326.17"/>
</g>
<!-- Strain -->
<g id="node19" class="node"><title>Strain</title>
<path fill="none" stroke="black" d="M1304.49,-868C1304.49,-868 1413.51,-868 1413.51,-868 1419.51,-868 1425.51,-874 1425.51,-880 1425.51,-880 1425.51,-942 1425.51,-942 1425.51,-948 1419.51,-954 1413.51,-954 1413.51,-954 1304.49,-954 1304.49,-954 1298.49,-954 1292.49,-948 1292.49,-942 1292.49,-942 1292.49,-880 1292.49,-880 1292.49,-874 1298.49,-868 1304.49,-868"/>
<text text-anchor="middle" x="1359" y="-938.8" font-family="Times,serif" font-size="14.00">Strain</text>
<polyline fill="none" stroke="black" points="1292.49,-932 1425.51,-932 "/>
<text text-anchor="start" x="1300.49" y="-916.8" font-family="Times,serif" font-size="14.00">id :integer</text>
<text text-anchor="start" x="1300.49" y="-902.8" font-family="Times,serif" font-size="14.00">name :string</text>
<text text-anchor="start" x="1300.49" y="-888.8" font-family="Times,serif" font-size="14.00">created_at :datetime</text>
<text text-anchor="start" x="1300.49" y="-874.8" font-family="Times,serif" font-size="14.00">updated_at :datetime</text>
</g>
<!-- Strain&#45;&gt;Sample -->
<g id="edge35" class="edge"><title>Strain&#45;&gt;Sample</title>
<path fill="none" stroke="#bb7c4e" d="M1380.62,-860.186C1401.8,-803.404 1426.21,-709.246 1391,-638 1368.45,-592.374 1325.45,-556.422 1284.73,-530.586"/>
<ellipse fill="none" stroke="#bb7c4e" cx="1379.08" cy="-864.207" rx="4.00001" ry="4.00001"/>
<ellipse fill="#bb7c4e" stroke="#bb7c4e" cx="1281.08" cy="-528.318" rx="4.00002" ry="4.00002"/>
</g>
<!-- Tissue -->
<g id="node20" class="node"><title>Tissue</title>
<path fill="none" stroke="black" d="M1455.49,-868C1455.49,-868 1564.51,-868 1564.51,-868 1570.51,-868 1576.51,-874 1576.51,-880 1576.51,-880 1576.51,-942 1576.51,-942 1576.51,-948 1570.51,-954 1564.51,-954 1564.51,-954 1455.49,-954 1455.49,-954 1449.49,-954 1443.49,-948 1443.49,-942 1443.49,-942 1443.49,-880 1443.49,-880 1443.49,-874 1449.49,-868 1455.49,-868"/>
<text text-anchor="middle" x="1510" y="-938.8" font-family="Times,serif" font-size="14.00">Tissue</text>
<polyline fill="none" stroke="black" points="1443.49,-932 1576.51,-932 "/>
<text text-anchor="start" x="1451.49" y="-916.8" font-family="Times,serif" font-size="14.00">id :integer</text>
<text text-anchor="start" x="1451.49" y="-902.8" font-family="Times,serif" font-size="14.00">name :string</text>
<text text-anchor="start" x="1451.49" y="-888.8" font-family="Times,serif" font-size="14.00">created_at :datetime</text>
<text text-anchor="start" x="1451.49" y="-874.8" font-family="Times,serif" font-size="14.00">updated_at :datetime</text>
</g>
<!-- Tissue&#45;&gt;Sample -->
<g id="edge37" class="edge"><title>Tissue&#45;&gt;Sample</title>
<path fill="none" stroke="#a2156a" d="M1493.99,-859.923C1470.22,-786.447 1426.92,-656.132 1413,-638 1379.11,-593.843 1329.12,-557.515 1284.77,-531.06"/>
<ellipse fill="none" stroke="#a2156a" cx="1495.28" cy="-863.914" rx="4.00001" ry="4.00001"/>
<ellipse fill="#a2156a" stroke="#a2156a" cx="1281.15" cy="-528.929" rx="4.00002" ry="4.00002"/>
</g>
<!-- User -->
<g id="node21" class="node"><title>User</title>
<path fill="none" stroke="black" d="M601.936,-819C601.936,-819 728.064,-819 728.064,-819 734.064,-819 740.064,-825 740.064,-831 740.064,-831 740.064,-991 740.064,-991 740.064,-997 734.064,-1003 728.064,-1003 728.064,-1003 601.936,-1003 601.936,-1003 595.936,-1003 589.936,-997 589.936,-991 589.936,-991 589.936,-831 589.936,-831 589.936,-825 595.936,-819 601.936,-819"/>
<text text-anchor="middle" x="665" y="-987.8" font-family="Times,serif" font-size="14.00">User</text>
<polyline fill="none" stroke="black" points="589.936,-981 740.064,-981 "/>
<text text-anchor="start" x="597.936" y="-965.8" font-family="Times,serif" font-size="14.00">id :integer</text>
<text text-anchor="start" x="597.936" y="-951.8" font-family="Times,serif" font-size="14.00">first_name :string</text>
<text text-anchor="start" x="597.936" y="-937.8" font-family="Times,serif" font-size="14.00">last_name :string</text>
<text text-anchor="start" x="597.936" y="-923.8" font-family="Times,serif" font-size="14.00">username :string</text>
<text text-anchor="start" x="597.936" y="-909.8" font-family="Times,serif" font-size="14.00">start_date :date</text>
<text text-anchor="start" x="597.936" y="-895.8" font-family="Times,serif" font-size="14.00">end_date :date</text>
<text text-anchor="start" x="597.936" y="-881.8" font-family="Times,serif" font-size="14.00">email :string</text>
<text text-anchor="start" x="597.936" y="-867.8" font-family="Times,serif" font-size="14.00">password_digest :string</text>
<text text-anchor="start" x="597.936" y="-853.8" font-family="Times,serif" font-size="14.00">remember_token :string</text>
<text text-anchor="start" x="597.936" y="-839.8" font-family="Times,serif" font-size="14.00">created_at :datetime</text>
<text text-anchor="start" x="597.936" y="-825.8" font-family="Times,serif" font-size="14.00">updated_at :datetime</text>
</g>
<!-- User&#45;&gt;Asset -->
<g id="edge39" class="edge"><title>User&#45;&gt;Asset</title>
<path fill="none" stroke="#48db22" d="M655.379,-810.696C650.043,-759.1 642.896,-695.066 635,-638 632.777,-621.932 631.135,-618.08 629,-602 601.728,-396.569 606.371,-343.911 583,-138 582.013,-129.307 580.908,-120.128 579.788,-111.131"/>
<ellipse fill="none" stroke="#48db22" cx="655.81" cy="-814.888" rx="4" ry="4"/>
<polygon fill="#48db22" stroke="#48db22" points="579.773,-111.009 582.988,-100.526 579.148,-106.049 578.523,-101.088 578.523,-101.088 578.523,-101.088 579.148,-106.049 574.058,-101.65 579.773,-111.009 579.773,-111.009"/>
</g>
<!-- User&#45;&gt;DataProcessing -->
<g id="edge44" class="edge"><title>User&#45;&gt;DataProcessing</title>
<path fill="none" stroke="#4aaad2" d="M582.229,-877.931C536.728,-856.673 482.316,-824.771 446,-782 390.546,-716.69 399.766,-684.596 377,-602 347.993,-496.761 354.393,-467.427 335,-360 333.027,-349.072 330.928,-337.626 328.824,-326.263"/>
<ellipse fill="none" stroke="#4aaad2" cx="586.106" cy="-879.712" rx="4.00002" ry="4.00002"/>
<polygon fill="#4aaad2" stroke="#4aaad2" points="328.802,-326.146 331.401,-315.492 327.889,-321.23 326.976,-316.314 326.976,-316.314 326.976,-316.314 327.889,-321.23 322.552,-317.136 328.802,-326.146 328.802,-326.146"/>
</g>
<!-- User&#45;&gt;DataSet -->
<g id="edge43" class="edge"><title>User&#45;&gt;DataSet</title>
<path fill="none" stroke="#4af7cc" d="M582.455,-872.645C545.774,-851.528 505.989,-821.379 484,-782 447.969,-717.472 445.987,-632.531 451.41,-569.508"/>
<ellipse fill="none" stroke="#4af7cc" cx="586.258" cy="-874.785" rx="4.00002" ry="4.00002"/>
<polygon fill="#4af7cc" stroke="#4af7cc" points="451.443,-569.15 456.86,-559.615 451.912,-564.172 452.38,-559.194 452.38,-559.194 452.38,-559.194 451.912,-564.172 447.899,-558.773 451.443,-569.15 451.443,-569.15"/>
</g>
<!-- User&#45;&gt;ExperimentDetail -->
<g id="edge42" class="edge"><title>User&#45;&gt;ExperimentDetail</title>
<path fill="none" stroke="#cbb870" d="M708.63,-811.529C733.15,-758.91 765.5,-693.682 799,-638 809.175,-621.088 817.157,-620.111 825,-602 868.539,-501.457 806.37,-447.734 872,-360 913.775,-304.155 987.007,-270.586 1042.92,-251.93"/>
<ellipse fill="none" stroke="#cbb870" cx="706.907" cy="-815.24" rx="4.00002" ry="4.00002"/>
<polygon fill="#cbb870" stroke="#cbb870" points="1042.93,-251.927 1053.83,-253.12 1047.68,-250.383 1052.44,-248.84 1052.44,-248.84 1052.44,-248.84 1047.68,-250.383 1051.05,-244.56 1042.93,-251.927 1042.93,-251.927"/>
</g>
<!-- User&#45;&gt;Project -->
<g id="edge40" class="edge"><title>User&#45;&gt;Project</title>
<path fill="none" stroke="#33caf5" d="M613.182,-811.792C609.344,-804.52 605.502,-797.238 601.737,-790.102"/>
<ellipse fill="none" stroke="#33caf5" cx="615.089" cy="-815.407" rx="4.00002" ry="4.00002"/>
<polygon fill="#33caf5" stroke="#33caf5" points="601.682,-789.998 600.996,-779.053 599.349,-785.576 597.016,-781.153 597.016,-781.153 597.016,-781.153 599.349,-785.576 593.036,-783.253 601.682,-789.998 601.682,-789.998"/>
</g>
<!-- User&#45;&gt;Publication -->
<g id="edge45" class="edge"><title>User&#45;&gt;Publication</title>
<path fill="none" stroke="#1f9566" d="M679.354,-810.913C690.296,-735.373 705.173,-632.676 715.376,-562.244"/>
<ellipse fill="none" stroke="#1f9566" cx="678.76" cy="-815.012" rx="4.00001" ry="4.00001"/>
<polygon fill="#1f9566" stroke="#1f9566" points="715.412,-561.991 721.3,-552.739 716.129,-557.042 716.846,-552.094 716.846,-552.094 716.846,-552.094 716.129,-557.042 712.393,-551.449 715.412,-561.991 715.412,-561.991"/>
</g>
<!-- User&#45;&gt;Sample -->
<g id="edge41" class="edge"><title>User&#45;&gt;Sample</title>
<path fill="none" stroke="#044e09" d="M747.526,-870.475C784.336,-853.446 828.462,-833.85 869,-818 916.123,-799.576 942.262,-818.787 977,-782 1022.52,-733.792 977.751,-692.162 1016,-638 1032.21,-615.039 1046.46,-620.056 1068,-602 1074.94,-596.187 1081.93,-590.033 1088.86,-583.704"/>
<ellipse fill="none" stroke="#044e09" cx="743.893" cy="-872.161" rx="4.00002" ry="4.00002"/>
<polygon fill="#044e09" stroke="#044e09" points="1089.01,-583.563 1099.41,-580.08 1092.69,-580.17 1096.36,-576.776 1096.36,-576.776 1096.36,-576.776 1092.69,-580.17 1093.3,-573.471 1089.01,-583.563 1089.01,-583.563"/>
</g>
<!-- ActiveRecord::Base -->
<g id="node22" class="node"><title>ActiveRecord::Base</title>
<ellipse fill="none" stroke="black" cx="865" cy="-1077" rx="80.9821" ry="18"/>
<text text-anchor="middle" x="865" y="-1072.8" font-family="Times,serif" font-size="14.00">ActiveRecord::Base</text>
</g>
<!-- ActiveRecord::Base&#45;&gt;Asset -->
<g id="edge1" class="edge"><title>ActiveRecord::Base&#45;&gt;Asset</title>
<path fill="none" stroke="black" d="M945.434,-1074.19C1134.59,-1069.15 1595.5,-1052.03 1645,-1004 1739.16,-912.638 1681,-842.201 1681,-711 1681,-711 1681,-711 1681,-480 1681,-441.14 1380.17,-210.627 1194,-138 1003.58,-63.7132 758.427,-52.111 640.868,-51.2207"/>
</g>
<!-- ActiveRecord::Base&#45;&gt;CellType -->
<g id="edge3" class="edge"><title>ActiveRecord::Base&#45;&gt;CellType</title>
<path fill="none" stroke="black" d="M932.503,-1066.81C973.471,-1057.7 1023.56,-1039.65 1054,-1004 1108.85,-939.767 1037.46,-881.637 1093,-818 1124.33,-782.095 1152.42,-805.291 1194,-782 1208.39,-773.941 1222.81,-763.526 1235.69,-753.17"/>
</g>
<!-- ActiveRecord::Base&#45;&gt;DataProcessing -->
<g id="edge5" class="edge"><title>ActiveRecord::Base&#45;&gt;DataProcessing</title>
<path fill="none" stroke="black" d="M832.931,-1060.45C815.845,-1052.9 794.23,-1044.52 774,-1040 711.633,-1026.07 244.667,-1049.7 200,-1004 149.969,-952.812 156.738,-426.183 184,-360 190.438,-344.37 199.811,-329.638 210.595,-316.122"/>
</g>
<!-- ActiveRecord::Base&#45;&gt;DataProcessingType -->
<g id="edge7" class="edge"><title>ActiveRecord::Base&#45;&gt;DataProcessingType</title>
<path fill="none" stroke="black" d="M832.941,-1060.4C815.857,-1052.85 794.241,-1044.46 774,-1040 705.856,-1024.97 201.294,-1047.84 147,-1004 71.4438,-942.998 62.6549,-818.322 63.6878,-753.017"/>
</g>
<!-- ActiveRecord::Base&#45;&gt;DataSet -->
<g id="edge10" class="edge"><title>ActiveRecord::Base&#45;&gt;DataSet</title>
<path fill="none" stroke="black" d="M831.057,-1060.43C814.208,-1053.26 793.361,-1045.2 774,-1040 669.41,-1011.9 617.7,-1071.49 533,-1004 402.021,-899.635 423.714,-677.211 446.621,-559.223"/>
</g>
<!-- ActiveRecord::Base&#45;&gt;DataSetType -->
<g id="edge12" class="edge"><title>ActiveRecord::Base&#45;&gt;DataSetType</title>
<path fill="none" stroke="black" d="M832.457,-1060.49C815.424,-1053.06 794.001,-1044.75 774,-1040 687.386,-1019.41 443.347,-1061.05 375,-1004 300.652,-941.943 291.271,-818.308 291.921,-753.257"/>
</g>
<!-- ActiveRecord::Base&#45;&gt;Disease -->
<g id="edge14" class="edge"><title>ActiveRecord::Base&#45;&gt;Disease</title>
<path fill="none" stroke="black" d="M945.222,-1073.92C1123.98,-1068.45 1542.69,-1050.75 1585,-1004 1647.53,-934.906 1602.62,-816.235 1571.31,-753.209"/>
</g>
<!-- ActiveRecord::Base&#45;&gt;ExperimentDetail -->
<g id="edge15" class="edge"><title>ActiveRecord::Base&#45;&gt;ExperimentDetail</title>
<path fill="none" stroke="black" d="M945.209,-1074.13C1129.07,-1069.02 1568.69,-1051.89 1614,-1004 1669.92,-944.902 1650.56,-714.548 1623,-638 1568.68,-487.121 1519.85,-458.106 1393,-360 1329.46,-310.854 1244,-274.732 1185.51,-253.621"/>
</g>
<!-- ActiveRecord::Base&#45;&gt;Molecule -->
<g id="edge17" class="edge"><title>ActiveRecord::Base&#45;&gt;Molecule</title>
<path fill="none" stroke="black" d="M866.476,-1058.94C871.34,-1004.38 887.439,-836.563 903,-818 935.504,-779.225 967.11,-807.172 1011,-782 1024.79,-774.092 1038.35,-763.608 1050.32,-753.131"/>
</g>
<!-- ActiveRecord::Base&#45;&gt;Organism -->
<g id="edge19" class="edge"><title>ActiveRecord::Base&#45;&gt;Organism</title>
<path fill="none" stroke="black" d="M876.771,-1059.07C893.837,-1034.52 926.001,-988.243 949.712,-954.134"/>
</g>
<!-- ActiveRecord::Base&#45;&gt;Platform -->
<g id="edge21" class="edge"><title>ActiveRecord::Base&#45;&gt;Platform</title>
<path fill="none" stroke="black" d="M858.306,-1058.97C835.767,-998.939 767.262,-792.492 826,-638 833.608,-617.99 844.455,-618.577 858,-602 878.679,-576.692 900.713,-547.358 917.803,-524.028"/>
</g>
<!-- ActiveRecord::Base&#45;&gt;Project -->
<g id="edge26" class="edge"><title>ActiveRecord::Base&#45;&gt;Project</title>
<path fill="none" stroke="black" d="M830.543,-1060.55C813.75,-1053.5 793.101,-1045.5 774,-1040 690.154,-1015.84 639.122,-1069.08 581,-1004 527.497,-944.09 531.879,-846.993 543.172,-781.143"/>
</g>
<!-- ActiveRecord::Base&#45;&gt;Protocol -->
<g id="edge28" class="edge"><title>ActiveRecord::Base&#45;&gt;Protocol</title>
<path fill="none" stroke="black" d="M863.749,-1058.96C861.043,-1017.44 855.961,-907.854 870,-818 873.412,-796.161 880.131,-772.554 886.535,-753.084"/>
</g>
<!-- ActiveRecord::Base&#45;&gt;PublicRepository -->
<g id="edge29" class="edge"><title>ActiveRecord::Base&#45;&gt;PublicRepository</title>
<path fill="none" stroke="black" d="M927.086,-1065.27C974.133,-1055.03 1038.85,-1036.25 1088,-1004 1102.59,-994.428 1116.14,-981.549 1127.83,-968.463"/>
</g>
<!-- ActiveRecord::Base&#45;&gt;Publication -->
<g id="edge30" class="edge"><title>ActiveRecord::Base&#45;&gt;Publication</title>
<path fill="none" stroke="black" d="M845.086,-1059.54C830.37,-1046.18 811.192,-1026 801,-1004 764.456,-925.097 741.395,-675.776 731.933,-552.464"/>
</g>
<!-- ActiveRecord::Base&#45;&gt;Sample -->
<g id="edge32" class="edge"><title>ActiveRecord::Base&#45;&gt;Sample</title>
<path fill="none" stroke="black" d="M942.255,-1071.26C1040.42,-1063.62 1202.17,-1045.04 1244,-1004 1304.29,-944.843 1231.06,-884.604 1283,-818 1305.49,-789.159 1337.6,-813.007 1357,-782 1390.94,-727.742 1391.08,-692.169 1357,-638 1337.31,-606.705 1310.88,-625.086 1282,-602 1280.55,-600.839 1279.1,-599.651 1277.67,-598.44"/>
</g>
<!-- ActiveRecord::Base&#45;&gt;Software -->
<g id="edge34" class="edge"><title>ActiveRecord::Base&#45;&gt;Software</title>
<path fill="none" stroke="black" d="M832.487,-1060.36C815.462,-1052.89 794.037,-1044.6 774,-1040 669.313,-1015.97 376.734,-1070.01 292,-1004 149.283,-892.825 209.34,-638.491 242.98,-531.193"/>
</g>
<!-- ActiveRecord::Base&#45;&gt;Strain -->
<g id="edge36" class="edge"><title>ActiveRecord::Base&#45;&gt;Strain</title>
<path fill="none" stroke="black" d="M938.333,-1069.11C1040.89,-1058.48 1221.01,-1035.93 1278,-1004 1299.35,-992.037 1317.86,-972.257 1331.78,-954.096"/>
</g>
<!-- ActiveRecord::Base&#45;&gt;Tissue -->
<g id="edge38" class="edge"><title>ActiveRecord::Base&#45;&gt;Tissue</title>
<path fill="none" stroke="black" d="M944.313,-1073.12C1080.35,-1067.02 1351.51,-1049.4 1434,-1004 1455.05,-992.413 1472.63,-972.437 1485.56,-954.054"/>
</g>
<!-- ActiveRecord::Base&#45;&gt;User -->
<g id="edge46" class="edge"><title>ActiveRecord::Base&#45;&gt;User</title>
<path fill="none" stroke="black" d="M836.719,-1059.82C813.784,-1046.16 781.096,-1025.45 755,-1004 750.08,-999.956 745.141,-995.673 740.247,-991.253"/>
</g>
</g>
</svg>
