<?xml version="1.0" encoding="UTF-8" standalone="no"?>
<!DOCTYPE svg PUBLIC "-//W3C//DTD SVG 1.1//EN"
 "http://www.w3.org/Graphics/SVG/1.1/DTD/svg11.dtd">
<!-- Generated by graphviz version 2.36.0 (20140111.2315)
 -->
<!-- Title: models_diagram Pages: 1 -->
<svg width="1459pt" height="442pt"
 viewBox="0.00 0.00 1459.00 442.00" xmlns="http://www.w3.org/2000/svg" xmlns:xlink="http://www.w3.org/1999/xlink">
<g id="graph0" class="graph" transform="scale(1 1) rotate(0) translate(4 438)">
<title>models_diagram</title>
<polygon fill="white" stroke="none" points="-4,4 -4,-438 1455,-438 1455,4 -4,4"/>
<!-- _diagram_info -->
<g id="node1" class="node"><title>_diagram_info</title>
<text text-anchor="start" x="509.312" y="-419.1" font-family="Times,serif" font-size="13.00">Models diagram</text>
<text text-anchor="start" x="509.312" y="-406.1" font-family="Times,serif" font-size="13.00">Date: Oct 03 2014 &#45; 08:52</text>
<text text-anchor="start" x="509.312" y="-393.1" font-family="Times,serif" font-size="13.00">Migration version: 20140820130919</text>
<text text-anchor="start" x="509.312" y="-380.1" font-family="Times,serif" font-size="13.00">Generated by RailRoady 1.1.2</text>
<text text-anchor="start" x="509.312" y="-367.1" font-family="Times,serif" font-size="13.00">http://railroady.prestonlee.com</text>
</g>
<!-- Asset -->
<g id="node2" class="node"><title>Asset</title>
<ellipse fill="none" stroke="black" cx="541" cy="-18" rx="29.1427" ry="18"/>
<text text-anchor="middle" x="541" y="-13.8" font-family="Times,serif" font-size="14.00">Asset</text>
</g>
<!-- CellType -->
<g id="node3" class="node"><title>CellType</title>
<ellipse fill="none" stroke="black" cx="1103" cy="-234" rx="42.0971" ry="18"/>
<text text-anchor="middle" x="1103" y="-229.8" font-family="Times,serif" font-size="14.00">CellType</text>
</g>
<!-- Sample -->
<g id="node17" class="node"><title>Sample</title>
<ellipse fill="none" stroke="black" cx="1033" cy="-162" rx="36.4487" ry="18"/>
<text text-anchor="middle" x="1033" y="-157.8" font-family="Times,serif" font-size="14.00">Sample</text>
</g>
<!-- CellType&#45;&gt;Sample -->
<g id="edge2" class="edge"><title>CellType&#45;&gt;Sample</title>
<path fill="none" stroke="#0d050f" d="M1081.4,-211.405C1072.71,-202.71 1062.72,-192.715 1054.07,-184.074"/>
<ellipse fill="none" stroke="#0d050f" cx="1084.29" cy="-214.287" rx="4.00002" ry="4.00002"/>
<ellipse fill="#0d050f" stroke="#0d050f" cx="1051.17" cy="-181.169" rx="4.00002" ry="4.00002"/>
</g>
<!-- DataProcessing -->
<g id="node4" class="node"><title>DataProcessing</title>
<ellipse fill="none" stroke="black" cx="374" cy="-90" rx="65.1792" ry="18"/>
<text text-anchor="middle" x="374" y="-85.8" font-family="Times,serif" font-size="14.00">DataProcessing</text>
</g>
<!-- DataProcessing&#45;&gt;Asset -->
<g id="edge4" class="edge"><title>DataProcessing&#45;&gt;Asset</title>
<path fill="none" stroke="#5bbbd1" d="M415.686,-71.5268C444.261,-59.5492 481.643,-43.8802 508.119,-32.7824"/>
<ellipse fill="none" stroke="#5bbbd1" cx="411.887" cy="-73.1192" rx="4.00002" ry="4.00002"/>
<polygon fill="#5bbbd1" stroke="#5bbbd1" points="508.121,-32.7816 519.083,-33.066 512.732,-30.8487 517.344,-28.9158 517.344,-28.9158 517.344,-28.9158 512.732,-30.8487 515.604,-24.7657 508.121,-32.7816 508.121,-32.7816"/>
</g>
<!-- DataProcessingType -->
<g id="node5" class="node"><title>DataProcessingType</title>
<ellipse fill="none" stroke="black" cx="82" cy="-234" rx="82.5084" ry="18"/>
<text text-anchor="middle" x="82" y="-229.8" font-family="Times,serif" font-size="14.00">DataProcessingType</text>
</g>
<!-- DataProcessingType&#45;&gt;DataProcessing -->
<g id="edge6" class="edge"><title>DataProcessingType&#45;&gt;DataProcessing</title>
<path fill="none" stroke="#239cdd" d="M101.459,-209.728C119.562,-189.525 148.299,-160.928 179,-144 219.441,-121.702 269.852,-108.322 309.286,-100.584"/>
<ellipse fill="none" stroke="#239cdd" cx="98.6096" cy="-212.965" rx="4.00002" ry="4.00002"/>
<ellipse fill="#239cdd" stroke="#239cdd" cx="313.597" cy="-99.7645" rx="4.00001" ry="4.00001"/>
</g>
<!-- DataSet -->
<g id="node6" class="node"><title>DataSet</title>
<ellipse fill="none" stroke="black" cx="475" cy="-162" rx="38.1517" ry="18"/>
<text text-anchor="middle" x="475" y="-157.8" font-family="Times,serif" font-size="14.00">DataSet</text>
</g>
<!-- DataSet&#45;&gt;Asset -->
<g id="edge9" class="edge"><title>DataSet&#45;&gt;Asset</title>
<path fill="none" stroke="#90a3c8" d="M486.209,-136.883C498.121,-111.254 516.883,-70.8873 529.065,-44.6782"/>
<ellipse fill="none" stroke="#90a3c8" cx="484.516" cy="-140.526" rx="4.00002" ry="4.00002"/>
<polygon fill="#90a3c8" stroke="#90a3c8" points="529.169,-44.4551 537.464,-37.2834 531.276,-39.9209 533.384,-35.3867 533.384,-35.3867 533.384,-35.3867 531.276,-39.9209 529.303,-33.49 529.169,-44.4551 529.169,-44.4551"/>
</g>
<!-- DataSet&#45;&gt;DataProcessing -->
<g id="edge8" class="edge"><title>DataSet&#45;&gt;DataProcessing</title>
<path fill="none" stroke="#b4f402" d="M447.122,-141.679C434.194,-132.719 418.773,-122.031 405.432,-112.785"/>
<ellipse fill="none" stroke="#b4f402" cx="450.785" cy="-144.217" rx="4.00002" ry="4.00002"/>
<polygon fill="#b4f402" stroke="#b4f402" points="405.232,-112.646 399.577,-103.251 401.123,-109.798 397.013,-106.95 397.013,-106.95 397.013,-106.95 401.123,-109.798 394.45,-110.648 405.232,-112.646 405.232,-112.646"/>
</g>
<!-- DataSetType -->
<g id="node7" class="node"><title>DataSetType</title>
<ellipse fill="none" stroke="black" cx="315" cy="-234" rx="55.4807" ry="18"/>
<text text-anchor="middle" x="315" y="-229.8" font-family="Times,serif" font-size="14.00">DataSetType</text>
</g>
<!-- DataSetType&#45;&gt;DataSet -->
<g id="edge11" class="edge"><title>DataSetType&#45;&gt;DataSet</title>
<path fill="none" stroke="#b4d243" d="M354.164,-215.866C379.983,-204.57 413.556,-189.882 438.76,-178.855"/>
<ellipse fill="none" stroke="#b4d243" cx="350.275" cy="-217.567" rx="4.00002" ry="4.00002"/>
<polygon fill="#b4d243" stroke="#b4d243" points="438.814,-178.831 449.779,-178.946 443.395,-176.827 447.976,-174.823 447.976,-174.823 447.976,-174.823 443.395,-176.827 446.172,-170.7 438.814,-178.831 438.814,-178.831"/>
</g>
<!-- Disease -->
<g id="node8" class="node"><title>Disease</title>
<ellipse fill="none" stroke="black" cx="1342" cy="-234" rx="37.4126" ry="18"/>
<text text-anchor="middle" x="1342" y="-229.8" font-family="Times,serif" font-size="14.00">Disease</text>
</g>
<!-- ExperimentDetail -->
<g id="node9" class="node"><title>ExperimentDetail</title>
<ellipse fill="none" stroke="black" cx="976" cy="-90" rx="72.4548" ry="18"/>
<text text-anchor="middle" x="976" y="-85.8" font-family="Times,serif" font-size="14.00">ExperimentDetail</text>
</g>
<!-- Disease&#45;&gt;ExperimentDetail -->
<g id="edge13" class="edge"><title>Disease&#45;&gt;ExperimentDetail</title>
<path fill="none" stroke="#e754d4" d="M1306.23,-219.122C1239.16,-193.099 1094.64,-137.029 1021.05,-108.477"/>
<ellipse fill="none" stroke="#e754d4" cx="1310.16" cy="-220.646" rx="4.00001" ry="4.00001"/>
<ellipse fill="#e754d4" stroke="#e754d4" cx="1017.02" cy="-106.915" rx="4.00001" ry="4.00001"/>
</g>
<!-- Molecule -->
<g id="node10" class="node"><title>Molecule</title>
<ellipse fill="none" stroke="black" cx="961" cy="-234" rx="43.2545" ry="18"/>
<text text-anchor="middle" x="961" y="-229.8" font-family="Times,serif" font-size="14.00">Molecule</text>
</g>
<!-- Molecule&#45;&gt;Sample -->
<g id="edge16" class="edge"><title>Molecule&#45;&gt;Sample</title>
<path fill="none" stroke="#d63906" d="M983.212,-211.405C992.155,-202.71 1002.44,-192.715 1011.32,-184.074"/>
<ellipse fill="none" stroke="#d63906" cx="980.206" cy="-214.328" rx="4.00002" ry="4.00002"/>
<ellipse fill="#d63906" stroke="#d63906" cx="1014.35" cy="-181.128" rx="4.00002" ry="4.00002"/>
</g>
<!-- Organism -->
<g id="node11" class="node"><title>Organism</title>
<ellipse fill="none" stroke="black" cx="900" cy="-306" rx="44.2452" ry="18"/>
<text text-anchor="middle" x="900" y="-301.8" font-family="Times,serif" font-size="14.00">Organism</text>
</g>
<!-- Organism&#45;&gt;Sample -->
<g id="edge18" class="edge"><title>Organism&#45;&gt;Sample</title>
<path fill="none" stroke="#369c69" d="M940.103,-290.524C968.495,-279.503 1003.2,-264.2 1013,-252 1027.43,-234.038 1031.91,-207.751 1033.1,-188.4"/>
<ellipse fill="none" stroke="#369c69" cx="936.024" cy="-292.085" rx="4.00001" ry="4.00001"/>
<ellipse fill="#369c69" stroke="#369c69" cx="1033.27" cy="-184.311" rx="4" ry="4"/>
</g>
<!-- Platform -->
<g id="node12" class="node"><title>Platform</title>
<ellipse fill="none" stroke="black" cx="828" cy="-162" rx="41.082" ry="18"/>
<text text-anchor="middle" x="828" y="-157.8" font-family="Times,serif" font-size="14.00">Platform</text>
</g>
<!-- Platform&#45;&gt;ExperimentDetail -->
<g id="edge20" class="edge"><title>Platform&#45;&gt;ExperimentDetail</title>
<path fill="none" stroke="#15ca8f" d="M862.136,-144.855C884.296,-134.374 913.254,-120.677 936.421,-109.72"/>
<ellipse fill="none" stroke="#15ca8f" cx="858.418" cy="-146.613" rx="4.00002" ry="4.00002"/>
<ellipse fill="#15ca8f" stroke="#15ca8f" cx="940.108" cy="-107.976" rx="4.00002" ry="4.00002"/>
</g>
<!-- Project -->
<g id="node13" class="node"><title>Project</title>
<ellipse fill="none" stroke="black" cx="538" cy="-234" rx="35.2345" ry="18"/>
<text text-anchor="middle" x="538" y="-229.8" font-family="Times,serif" font-size="14.00">Project</text>
</g>
<!-- Project&#45;&gt;Asset -->
<g id="edge22" class="edge"><title>Project&#45;&gt;Asset</title>
<path fill="none" stroke="#5fcfe2" d="M538.355,-207.67C538.922,-167.203 540.029,-88.2848 540.615,-46.4929"/>
<ellipse fill="none" stroke="#5fcfe2" cx="538.297" cy="-211.85" rx="4" ry="4"/>
<polygon fill="#5fcfe2" stroke="#5fcfe2" points="540.618,-46.2315 545.258,-36.2956 540.688,-41.232 540.758,-36.2325 540.758,-36.2325 540.758,-36.2325 540.688,-41.232 536.259,-36.1693 540.618,-46.2315 540.618,-46.2315"/>
</g>
<!-- Project&#45;&gt;DataSet -->
<g id="edge24" class="edge"><title>Project&#45;&gt;DataSet</title>
<path fill="none" stroke="#f4a440" d="M518.422,-211.247C511.379,-203.421 503.403,-194.559 496.226,-186.584"/>
<ellipse fill="none" stroke="#f4a440" cx="521.342" cy="-214.492" rx="4.00002" ry="4.00002"/>
<polygon fill="#f4a440" stroke="#f4a440" points="496.069,-186.41 492.724,-175.967 492.724,-182.694 489.379,-178.977 489.379,-178.977 489.379,-178.977 492.724,-182.694 486.035,-181.988 496.069,-186.41 496.069,-186.41"/>
</g>
<!-- Publication -->
<g id="node16" class="node"><title>Publication</title>
<ellipse fill="none" stroke="black" cx="657" cy="-162" rx="50.0862" ry="18"/>
<text text-anchor="middle" x="657" y="-157.8" font-family="Times,serif" font-size="14.00">Publication</text>
</g>
<!-- Project&#45;&gt;Publication -->
<g id="edge25" class="edge"><title>Project&#45;&gt;Publication</title>
<path fill="none" stroke="#1ecf24" d="M567.091,-215.888C583.937,-205.978 605.232,-193.452 622.868,-183.078"/>
<ellipse fill="none" stroke="#1ecf24" cx="563.552" cy="-217.969" rx="4.00002" ry="4.00002"/>
<polygon fill="#1ecf24" stroke="#1ecf24" points="623.095,-182.944 633.996,-181.753 627.405,-180.409 631.714,-177.874 631.714,-177.874 631.714,-177.874 627.405,-180.409 629.433,-173.995 623.095,-182.944 623.095,-182.944"/>
</g>
<!-- Project&#45;&gt;Sample -->
<g id="edge23" class="edge"><title>Project&#45;&gt;Sample</title>
<path fill="none" stroke="#919af4" d="M579.646,-227.111C671.937,-214.059 893.004,-182.797 988.175,-169.339"/>
<ellipse fill="none" stroke="#919af4" cx="575.595" cy="-227.684" rx="4.00001" ry="4.00001"/>
<polygon fill="#919af4" stroke="#919af4" points="988.432,-169.303 998.964,-172.358 993.383,-168.602 998.334,-167.902 998.334,-167.902 998.334,-167.902 993.383,-168.602 997.704,-163.447 988.432,-169.303 988.432,-169.303"/>
</g>
<!-- Protocol -->
<g id="node14" class="node"><title>Protocol</title>
<ellipse fill="none" stroke="black" cx="821" cy="-234" rx="40.1117" ry="18"/>
<text text-anchor="middle" x="821" y="-229.8" font-family="Times,serif" font-size="14.00">Protocol</text>
</g>
<!-- Protocol&#45;&gt;ExperimentDetail -->
<g id="edge27" class="edge"><title>Protocol&#45;&gt;ExperimentDetail</title>
<path fill="none" stroke="#96c09d" d="M844.119,-211.82C873.031,-185.333 922.299,-140.197 951.737,-113.228"/>
<ellipse fill="none" stroke="#96c09d" cx="840.832" cy="-214.831" rx="4.00002" ry="4.00002"/>
<ellipse fill="#96c09d" stroke="#96c09d" cx="954.753" cy="-110.465" rx="4.00002" ry="4.00002"/>
</g>
<!-- PublicRepository -->
<g id="node15" class="node"><title>PublicRepository</title>
<ellipse fill="none" stroke="black" cx="1073" cy="-306" rx="71.2782" ry="18"/>
<text text-anchor="middle" x="1073" y="-301.8" font-family="Times,serif" font-size="14.00">PublicRepository</text>
</g>
<!-- Sample&#45;&gt;ExperimentDetail -->
<g id="edge31" class="edge"><title>Sample&#45;&gt;ExperimentDetail</title>
<path fill="none" stroke="#04d60d" d="M1014.92,-138.796C1008.92,-131.424 1002.2,-123.174 996.056,-115.631"/>
<ellipse fill="none" stroke="#04d60d" cx="1017.54" cy="-142.014" rx="4.00002" ry="4.00002"/>
<polygon fill="#04d60d" stroke="#04d60d" points="995.992,-115.552 993.167,-104.956 992.835,-111.675 989.678,-107.797 989.678,-107.797 989.678,-107.797 992.835,-111.675 986.188,-110.639 995.992,-115.552 995.992,-115.552"/>
</g>
<!-- Software -->
<g id="node18" class="node"><title>Software</title>
<ellipse fill="none" stroke="black" cx="301" cy="-162" rx="42.0458" ry="18"/>
<text text-anchor="middle" x="301" y="-157.8" font-family="Times,serif" font-size="14.00">Software</text>
</g>
<!-- Software&#45;&gt;DataProcessing -->
<g id="edge33" class="edge"><title>Software&#45;&gt;DataProcessing</title>
<path fill="none" stroke="#963f1c" d="M323.605,-139.324C331.783,-131.482 341.056,-122.59 349.398,-114.591"/>
<ellipse fill="none" stroke="#963f1c" cx="320.452" cy="-142.347" rx="4.00002" ry="4.00002"/>
<polygon fill="#963f1c" stroke="#963f1c" points="349.521,-114.473 359.854,-110.8 353.13,-111.012 356.739,-107.552 356.739,-107.552 356.739,-107.552 353.13,-111.012 353.624,-104.304 349.521,-114.473 349.521,-114.473"/>
</g>
<!-- Strain -->
<g id="node19" class="node"><title>Strain</title>
<ellipse fill="none" stroke="black" cx="1232" cy="-306" rx="31.3473" ry="18"/>
<text text-anchor="middle" x="1232" y="-301.8" font-family="Times,serif" font-size="14.00">Strain</text>
</g>
<!-- Strain&#45;&gt;Sample -->
<g id="edge35" class="edge"><title>Strain&#45;&gt;Sample</title>
<path fill="none" stroke="#cb0aba" d="M1225.23,-280.404C1218.57,-260.474 1206.5,-233.001 1187,-216 1155.76,-188.763 1109.81,-175.341 1076.23,-168.843"/>
<ellipse fill="none" stroke="#cb0aba" cx="1226.48" cy="-284.351" rx="4.00001" ry="4.00001"/>
<ellipse fill="#cb0aba" stroke="#cb0aba" cx="1071.91" cy="-168.055" rx="4.00001" ry="4.00001"/>
</g>
<!-- Tissue -->
<g id="node20" class="node"><title>Tissue</title>
<ellipse fill="none" stroke="black" cx="1314" cy="-306" rx="32.3355" ry="18"/>
<text text-anchor="middle" x="1314" y="-301.8" font-family="Times,serif" font-size="14.00">Tissue</text>
</g>
<!-- Tissue&#45;&gt;Sample -->
<g id="edge37" class="edge"><title>Tissue&#45;&gt;Sample</title>
<path fill="none" stroke="#ea0b46" d="M1295.03,-283.583C1276.1,-263.446 1245.26,-233.809 1213,-216 1169.25,-191.852 1113.3,-177.614 1075.48,-170.079"/>
<ellipse fill="none" stroke="#ea0b46" cx="1297.79" cy="-286.568" rx="4.00002" ry="4.00002"/>
<ellipse fill="#ea0b46" stroke="#ea0b46" cx="1071.15" cy="-169.243" rx="4.00001" ry="4.00001"/>
</g>
<!-- User -->
<g id="node21" class="node"><title>User</title>
<ellipse fill="none" stroke="black" cx="628" cy="-306" rx="27" ry="18"/>
<text text-anchor="middle" x="628" y="-301.8" font-family="Times,serif" font-size="14.00">User</text>
</g>
<!-- User&#45;&gt;Asset -->
<g id="edge39" class="edge"><title>User&#45;&gt;Asset</title>
<path fill="none" stroke="#b8f894" d="M620.449,-280.177C604.171,-226.666 565.894,-100.837 549.119,-45.6885"/>
<ellipse fill="none" stroke="#b8f894" cx="621.654" cy="-284.139" rx="4.00001" ry="4.00001"/>
<polygon fill="#b8f894" stroke="#b8f894" points="549.065,-45.512 550.46,-34.6352 547.61,-40.7284 546.155,-35.9448 546.155,-35.9448 546.155,-35.9448 547.61,-40.7284 541.849,-37.2545 549.065,-45.512 549.065,-45.512"/>
</g>
<!-- User&#45;&gt;DataProcessing -->
<g id="edge44" class="edge"><title>User&#45;&gt;DataProcessing</title>
<path fill="none" stroke="#21413b" d="M593.656,-299.918C560.192,-293.522 509.331,-279.811 474,-252 428.465,-216.157 398.254,-153.433 383.834,-117.777"/>
<ellipse fill="none" stroke="#21413b" cx="597.833" cy="-300.677" rx="4.00001" ry="4.00001"/>
<polygon fill="#21413b" stroke="#21413b" points="383.675,-117.372 384.215,-106.419 381.85,-112.717 380.025,-108.061 380.025,-108.061 380.025,-108.061 381.85,-112.717 375.835,-109.704 383.675,-117.372 383.675,-117.372"/>
</g>
<!-- User&#45;&gt;DataSet -->
<g id="edge43" class="edge"><title>User&#45;&gt;DataSet</title>
<path fill="none" stroke="#cefcec" d="M593.662,-300.599C562.965,-294.811 519.069,-281.628 494,-252 479.534,-234.903 475.262,-209.453 474.331,-190.141"/>
<ellipse fill="none" stroke="#cefcec" cx="597.613" cy="-301.29" rx="4.00001" ry="4.00001"/>
<polygon fill="#cefcec" stroke="#cefcec" points="474.331,-190.134 478.613,-180.039 474.223,-185.135 474.114,-180.137 474.114,-180.137 474.114,-180.137 474.223,-185.135 469.615,-180.234 474.331,-190.134 474.331,-190.134"/>
</g>
<!-- User&#45;&gt;ExperimentDetail -->
<g id="edge42" class="edge"><title>User&#45;&gt;ExperimentDetail</title>
<path fill="none" stroke="#bb2088" d="M643.024,-281.968C667.184,-246.798 718.083,-180.01 778,-144 815.658,-121.368 863.048,-108.238 902.023,-100.709"/>
<ellipse fill="none" stroke="#bb2088" cx="640.524" cy="-285.658" rx="4.00002" ry="4.00002"/>
<polygon fill="#bb2088" stroke="#bb2088" points="902.422,-100.636 913.073,-103.248 907.339,-99.7291 912.257,-98.8224 912.257,-98.8224 912.257,-98.8224 907.339,-99.7291 911.441,-94.397 902.422,-100.636 902.422,-100.636"/>
</g>
<!-- User&#45;&gt;Project -->
<g id="edge40" class="edge"><title>User&#45;&gt;Project</title>
<path fill="none" stroke="#bf7e93" d="M604.547,-286.759C592.319,-277.248 577.314,-265.577 564.649,-255.727"/>
<ellipse fill="none" stroke="#bf7e93" cx="607.914" cy="-289.378" rx="4.00002" ry="4.00002"/>
<polygon fill="#bf7e93" stroke="#bf7e93" points="564.61,-255.697 559.479,-246.005 560.663,-252.627 556.716,-249.557 556.716,-249.557 556.716,-249.557 560.663,-252.627 553.954,-253.109 564.61,-255.697 564.61,-255.697"/>
</g>
<!-- User&#45;&gt;Publication -->
<g id="edge45" class="edge"><title>User&#45;&gt;Publication</title>
<path fill="none" stroke="#c9b6b4" d="M633.12,-279.929C638.267,-254.725 646.177,-215.994 651.467,-190.095"/>
<ellipse fill="none" stroke="#c9b6b4" cx="632.298" cy="-283.952" rx="4.00001" ry="4.00001"/>
<polygon fill="#c9b6b4" stroke="#c9b6b4" points="651.488,-189.987 657.899,-181.09 652.489,-185.088 653.49,-180.189 653.49,-180.189 653.49,-180.189 652.489,-185.088 649.081,-179.289 651.488,-189.987 651.488,-189.987"/>
</g>
<!-- User&#45;&gt;Sample -->
<g id="edge41" class="edge"><title>User&#45;&gt;Sample</title>
<path fill="none" stroke="#1ff9ed" d="M663.097,-303.197C712.06,-299.418 802.45,-287.77 870,-252 890.56,-241.113 888.536,-228.744 908,-216 934.55,-198.617 967.745,-184.859 993.254,-175.721"/>
<ellipse fill="none" stroke="#1ff9ed" cx="659.017" cy="-303.491" rx="4" ry="4"/>
<polygon fill="#1ff9ed" stroke="#1ff9ed" points="993.531,-175.625 1004.46,-176.577 998.252,-173.977 1002.97,-172.329 1002.97,-172.329 1002.97,-172.329 998.252,-173.977 1001.49,-168.08 993.531,-175.625 993.531,-175.625"/>
</g>
<!-- ActiveRecord::Base -->
<g id="node22" class="node"><title>ActiveRecord::Base</title>
<ellipse fill="none" stroke="black" cx="808" cy="-397" rx="80.9821" ry="18"/>
<text text-anchor="middle" x="808" y="-392.8" font-family="Times,serif" font-size="14.00">ActiveRecord::Base</text>
</g>
<!-- ActiveRecord::Base&#45;&gt;Asset -->
<g id="edge1" class="edge"><title>ActiveRecord::Base&#45;&gt;Asset</title>
<path fill="none" stroke="black" d="M888.853,-394.966C1030.89,-391.732 1317.93,-378.445 1400,-324 1437.99,-298.798 1451,-280.59 1451,-235 1451,-235 1451,-235 1451,-161 1451,-69.6583 726.007,-28.245 570.247,-20.4017"/>
</g>
<!-- ActiveRecord::Base&#45;&gt;CellType -->
<g id="edge3" class="edge"><title>ActiveRecord::Base&#45;&gt;CellType</title>
<path fill="none" stroke="black" d="M845.355,-380.967C875.632,-367.973 918.743,-347.596 953,-324 972.427,-310.619 972.471,-301.231 992,-288 1017.46,-270.752 1049.4,-256.139 1072.47,-246.653"/>
</g>
<!-- ActiveRecord::Base&#45;&gt;DataProcessing -->
<g id="edge5" class="edge"><title>ActiveRecord::Base&#45;&gt;DataProcessing</title>
<path fill="none" stroke="black" d="M775.476,-380.414C758.447,-372.958 737.022,-364.661 717,-360 620.372,-337.506 352.261,-382.319 272,-324 206.799,-276.624 201.949,-208.704 250,-144 266.959,-121.163 295.752,-108.065 321.325,-100.606"/>
</g>
<!-- ActiveRecord::Base&#45;&gt;DataProcessingType -->
<g id="edge7" class="edge"><title>ActiveRecord::Base&#45;&gt;DataProcessingType</title>
<path fill="none" stroke="black" d="M775.502,-380.297C758.481,-372.812 737.054,-364.522 717,-360 600.111,-333.645 289.148,-371.17 179,-324 142.654,-308.435 111.134,-273.263 94.5156,-252.092"/>
</g>
<!-- ActiveRecord::Base&#45;&gt;DataSet -->
<g id="edge10" class="edge"><title>ActiveRecord::Base&#45;&gt;DataSet</title>
<path fill="none" stroke="black" d="M773.011,-380.708C756.275,-373.769 735.826,-365.831 717,-360 648.203,-338.691 623.426,-356.193 559,-324 514.712,-301.87 494.819,-296.919 474,-252 463.279,-228.867 466.793,-198.582 470.647,-179.974"/>
</g>
<!-- ActiveRecord::Base&#45;&gt;DataSetType -->
<g id="edge12" class="edge"><title>ActiveRecord::Base&#45;&gt;DataSetType</title>
<path fill="none" stroke="black" d="M774.997,-380.458C758.024,-373.109 736.792,-364.893 717,-360 572.917,-324.38 514.81,-395.959 385,-324 355.428,-307.607 333.994,-273.066 323.112,-252.164"/>
</g>
<!-- ActiveRecord::Base&#45;&gt;Disease -->
<g id="edge14" class="edge"><title>ActiveRecord::Base&#45;&gt;Disease</title>
<path fill="none" stroke="black" d="M885.262,-391.396C1028.72,-382.055 1324.51,-358.769 1355,-324 1372.5,-304.042 1361.03,-271.343 1351.34,-251.627"/>
</g>
<!-- ActiveRecord::Base&#45;&gt;ExperimentDetail -->
<g id="edge15" class="edge"><title>ActiveRecord::Base&#45;&gt;ExperimentDetail</title>
<path fill="none" stroke="black" d="M889.191,-396.821C1028.39,-396.468 1304.29,-387.511 1373,-324 1408.59,-291.107 1416.31,-255.333 1388,-216 1346.57,-158.441 1140.21,-117.534 1036.17,-100.217"/>
</g>
<!-- ActiveRecord::Base&#45;&gt;Molecule -->
<g id="edge17" class="edge"><title>ActiveRecord::Base&#45;&gt;Molecule</title>
<path fill="none" stroke="black" d="M809.856,-378.925C813.215,-355.684 822.313,-314.013 846,-288 857.804,-275.037 899.541,-257.653 929.329,-246.389"/>
</g>
<!-- ActiveRecord::Base&#45;&gt;Organism -->
<g id="edge19" class="edge"><title>ActiveRecord::Base&#45;&gt;Organism</title>
<path fill="none" stroke="black" d="M825.304,-379.26C842.065,-363.046 867.288,-338.646 883.7,-322.769"/>
</g>
<!-- ActiveRecord::Base&#45;&gt;Platform -->
<g id="edge21" class="edge"><title>ActiveRecord::Base&#45;&gt;Platform</title>
<path fill="none" stroke="black" d="M798.114,-378.926C780.493,-346.114 747.683,-272.496 772,-216 778.88,-200.016 793.213,-186.598 805.656,-177.263"/>
</g>
<!-- ActiveRecord::Base&#45;&gt;Project -->
<g id="edge26" class="edge"><title>ActiveRecord::Base&#45;&gt;Project</title>
<path fill="none" stroke="black" d="M771.986,-380.828C755.383,-374.072 735.332,-366.25 717,-360 662.279,-341.345 637.922,-359.122 592,-324 567.595,-305.335 551.79,-272.212 543.925,-252.064"/>
</g>
<!-- ActiveRecord::Base&#45;&gt;Protocol -->
<g id="edge28" class="edge"><title>ActiveRecord::Base&#45;&gt;Protocol</title>
<path fill="none" stroke="black" d="M808.249,-378.752C808.683,-357.4 809.858,-319.943 813,-288 814.184,-275.961 816.229,-262.482 817.954,-252.13"/>
</g>
<!-- ActiveRecord::Base&#45;&gt;PublicRepository -->
<g id="edge29" class="edge"><title>ActiveRecord::Base&#45;&gt;PublicRepository</title>
<path fill="none" stroke="black" d="M850.871,-381.602C900.823,-364.825 982.769,-337.304 1031.93,-320.792"/>
</g>
<!-- ActiveRecord::Base&#45;&gt;Publication -->
<g id="edge30" class="edge"><title>ActiveRecord::Base&#45;&gt;Publication</title>
<path fill="none" stroke="black" d="M796.897,-378.867C768.904,-335.673 695.706,-222.725 667.916,-179.844"/>
</g>
<!-- ActiveRecord::Base&#45;&gt;Sample -->
<g id="edge32" class="edge"><title>ActiveRecord::Base&#45;&gt;Sample</title>
<path fill="none" stroke="black" d="M884.644,-390.911C975.714,-383.092 1119.58,-364.542 1153,-324 1183.54,-286.962 1180.27,-256.179 1154,-216 1134.99,-186.918 1096.1,-173.695 1067.52,-167.746"/>
</g>
<!-- ActiveRecord::Base&#45;&gt;Software -->
<g id="edge34" class="edge"><title>ActiveRecord::Base&#45;&gt;Software</title>
<path fill="none" stroke="black" d="M775.022,-380.356C758.055,-372.982 736.821,-364.774 717,-360 554.651,-320.9 498.24,-385.534 343,-324 294.406,-304.738 273.019,-298.932 250,-252 242.954,-237.635 244.019,-230.84 250,-216 256.157,-200.721 269.059,-187.383 280.345,-177.909"/>
</g>
<!-- ActiveRecord::Base&#45;&gt;Strain -->
<g id="edge36" class="edge"><title>ActiveRecord::Base&#45;&gt;Strain</title>
<path fill="none" stroke="black" d="M875.222,-386.835C951.626,-375.59 1079.66,-354.224 1187,-324 1193.75,-322.099 1200.92,-319.615 1207.5,-317.135"/>
</g>
<!-- ActiveRecord::Base&#45;&gt;Tissue -->
<g id="edge38" class="edge"><title>ActiveRecord::Base&#45;&gt;Tissue</title>
<path fill="none" stroke="black" d="M882.643,-389.763C975.264,-380.809 1137.43,-361.139 1272,-324 1277.76,-322.41 1283.81,-320.265 1289.45,-318.036"/>
</g>
<!-- ActiveRecord::Base&#45;&gt;User -->
<g id="edge46" class="edge"><title>ActiveRecord::Base&#45;&gt;User</title>
<path fill="none" stroke="black" d="M776.234,-380.293C739.598,-362.179 680.399,-332.909 649.047,-317.406"/>
</g>
</g>
</svg>
